<?xml version="1.0" encoding="UTF-8"?>
<svg width="93px" height="110px" viewBox="0 0 93 110" version="1.1" xmlns="http://www.w3.org/2000/svg" xmlns:xlink="http://www.w3.org/1999/xlink">
    <title>编组 13</title>
    <defs>
        <rect id="path-1" x="0" y="0" width="93" height="110"></rect>
    </defs>
    <g id="页面-1" stroke="none" stroke-width="1" fill="none" fill-rule="evenodd">
        <g id="温度样式" transform="translate(-191.000000, -245.000000)">
            <g id="ic_filter_vintage" transform="translate(191.000000, 245.000000)">
                <mask id="mask-2" fill="white">
                    <use xlink:href="#path-1"></use>
                </mask>
                <use id="蒙版" fill-opacity="0.3" fill="#4B7382" xlink:href="#path-1"></use>
                <g id="编组" mask="url(#mask-2)" fill="#00C0FF" fill-opacity="0.15" fill-rule="nonzero">
                    <g transform="translate(19.000000, 20.000000)" id="形状结合">
                        <path d="M42.7134961,29.4527465 C48.1495408,25.5444706 55.2909382,24.9050974 61.338225,27.7852643 C67.3855118,30.6654313 71.3750721,36.6061929 71.7429784,43.2787412 C80.3430554,46.5700434 85.3615654,55.5136948 83.6754894,64.5440607 C81.9894134,73.5744265 74.0792838,80.1178485 64.8675747,80.1023548 C64.0731895,80.1019185 63.2796385,80.0510313 62.4917407,79.9500022 C57.5727255,86.2890677 49.9875863,90 41.9495624,90 C33.9115385,90 26.3263992,86.2890677 21.4073841,79.9500022 C20.6194862,80.0510313 19.8259353,80.1019185 19.0315501,80.1023548 C9.54020373,80.0684904 1.51402568,73.0894038 0.188657334,63.7176971 C-1.13671101,54.3459904 4.64095635,45.4258118 13.7527679,42.7759778 C14.3049103,36.2178395 18.3493123,30.4617103 24.3422284,27.7047006 C30.3351444,24.947691 37.3516295,25.6153171 42.7134961,29.4527465 Z M66.5149664,60.0700936 L66.1815408,60.0756109 C65.3200618,60.0400403 64.4601908,60.1773323 63.65292,60.4793451 C63.0795997,60.7211507 62.5887469,61.1232998 62.2396426,61.6372246 C61.8630552,62.2785297 61.6286147,62.9928398 61.5521022,63.7320723 L61.5521022,63.7320723 L64.7453453,63.9910717 C64.7746559,63.4952757 64.9589924,63.0210923 65.2724596,62.6351338 C65.5383542,62.3796852 65.8965436,62.2423116 66.2655734,62.2542525 C66.6288557,62.2409292 66.9819142,62.3757004 67.2434087,62.6275162 C67.4947901,62.8556122 67.6365423,63.1798844 67.6330148,63.5187787 C67.6155611,63.8940482 67.4791472,64.2541178 67.2434087,64.5471585 C66.712414,65.1445045 66.1094304,65.6741339 65.4481643,66.1240075 C64.2515341,66.9288041 63.1937532,67.9218361 62.316036,69.0644119 C61.7742837,69.858167 61.4311221,70.7697933 61.3152828,71.722964 L61.3152828,71.722964 L70.8873726,71.722964 L70.8873726,69.1329705 L65.9065246,69.1329705 C66.2044588,68.8435007 66.4489176,68.5997366 66.6704583,68.4321487 C66.8919991,68.2645609 67.319802,67.9446205 67.9615064,67.5027981 C68.8290011,66.9458508 69.5874915,66.2359802 70.1998322,65.4079505 C70.59405,64.8161892 70.8064533,64.1225449 70.8109792,63.4121319 C70.8218633,62.7794817 70.6349648,62.1591446 70.2762256,61.6372246 C69.9155823,61.104239 69.4015748,60.6926082 68.8018334,60.4564923 C67.9594238,60.1695199 67.0710515,60.0403875 66.1815408,60.0756109 Z M26.1221445,46.1339205 L25.7923637,46.1429693 C22.8600254,46.0268548 20.0209294,47.1826032 18.0078788,49.3119026 C16.0318369,51.4194463 15.0437962,54.3776251 15.0437962,58.1864391 C15.038723,61.787038 16.0191046,64.6284132 17.9849608,66.7105648 C19.9274108,68.7794744 22.6689216,69.9145926 25.5097082,69.8261746 C27.6935274,69.9163305 29.8448316,69.2754548 31.6211781,68.0055616 C33.3615708,66.5843083 34.5767124,64.6246971 35.0741587,62.4370755 L35.0741587,62.4370755 L30.5593102,61.0582848 C30.3073716,62.4456961 29.6293137,63.7207622 28.6189186,64.7071287 C27.7440186,65.4798856 26.6094848,65.8959682 25.4409542,65.8726257 C23.8684611,65.920096 22.362393,65.2395103 21.361548,64.0291598 C20.3225981,62.8027216 19.7954838,60.7383445 19.7954838,57.8436458 C19.7954838,55.116535 20.3378768,53.1410302 21.4226627,51.9171313 C22.4668527,50.7186621 24.0032796,50.0620646 25.5937409,50.1346063 C27.9285635,50.0415393 29.9836491,51.6576634 30.4370809,53.9434204 L30.4370809,53.9434204 L35.0206833,52.846482 C34.633071,51.2536509 33.8199677,49.7952772 32.6677674,48.626316 C30.7963075,46.92311 28.323567,46.0299738 25.7923637,46.1429693 Z M55.7003698,49.281432 C53.5551121,47.1453002 50.6083657,46.0064391 47.5797541,46.1429693 C45.8853905,46.1110552 44.2019012,46.419336 42.6294634,47.0494671 C41.5076804,47.5275953 40.4962452,48.2302175 39.6577612,49.1138442 C38.7591651,50.0247133 38.0297637,51.0873351 37.503468,52.2523069 C36.750921,54.1167659 36.3945456,56.1166536 36.4568788,58.1254981 C36.4823432,61.7667243 37.5009215,64.6284132 39.5126137,66.7105648 C41.5956063,68.787638 44.312664,69.8261746 47.6637867,69.8261746 C51.0149095,69.8261746 53.7090492,68.7825596 55.7462058,66.6953295 C57.7528051,64.6284132 58.7561047,61.7337146 58.7561047,58.0112337 C58.7561047,54.2887528 57.7375264,51.3788189 55.7003698,49.281432 Z M47.5078573,50.0046392 C49.2990551,49.9349522 51.0288853,50.6532483 52.2279901,51.9646312 C53.4119436,53.2918699 54,55.2364289 54,57.9217723 C54,60.6071157 53.4197844,62.6519893 52.2593531,63.9560785 C51.0529784,65.2580787 49.3453137,66 47.5549018,66 C45.7644898,66 44.0568251,65.2580787 42.8504505,63.9560785 C41.6116115,62.6442728 40.9948057,60.6534147 41,57.9835043 C41.0052602,55.3135939 41.6063846,53.3175916 42.803406,51.9954972 C43.994398,50.6786996 45.7174465,49.9495296 47.5078573,50.0046392 Z M5.24981998,29.6029061 C6.64221632,28.7990313 8.35778368,28.7990313 9.75018002,29.6029061 C11.1425764,30.4067808 12.0002228,31.8923791 12,33.5 C12.0002228,35.1076209 11.1425764,36.5932192 9.75018002,37.3970939 C8.35778368,38.2009687 6.64221632,38.2009687 5.24981998,37.3970939 C3.85742363,36.5932192 2.99977722,35.1076209 3,33.5 C2.99977722,31.8923791 3.85742363,30.4067808 5.24981998,29.6029061 Z M74.24982,28.6029061 C75.6422163,27.7990313 77.3577837,27.7990313 78.75018,28.6029061 C80.1425764,29.4067808 81.0002228,30.8923791 81,32.5 C81.0002228,34.1076209 80.1425764,35.5932192 78.75018,36.3970939 C77.3577837,37.2009687 75.6422163,37.2009687 74.24982,36.3970939 C72.8574236,35.5932192 71.9997772,34.1076209 72,32.5 C71.9997772,30.8923791 72.8574236,29.4067808 74.24982,28.6029061 Z M39.2499999,14.6028857 C40.6423048,13.7990381 42.3576952,13.7990381 43.7500001,14.6028857 C45.1423049,15.4067333 46,16.8923049 46,18.5 C46,20.9852814 43.9852814,23 41.5,23 C39.0147186,23 37,20.9852814 37,18.5 C37,16.8923049 37.8576951,15.4067333 39.2499999,14.6028857 Z M59.9998247,15.5359182 C61.2375181,14.8213606 62.7624819,14.8213606 64.0001753,15.5359182 C65.2378687,16.2504759 66.0002169,17.57101 66,19 C66.0002169,20.42899 65.2378687,21.7495241 64.0001753,22.4640818 C62.7624819,23.1786394 61.2375181,23.1786394 59.9998247,22.4640818 C58.7621313,21.7495241 57.9997831,20.42899 58,19 C57.9997831,17.57101 58.7621313,16.2504759 59.9998247,15.5359182 Z M18.9998247,14.5359182 C20.2375181,13.8213606 21.7624819,13.8213606 23.0001753,14.5359182 C24.2378687,15.2504759 25.0002169,16.57101 25,18 C25.0002169,19.42899 24.2378687,20.7495241 23.0001753,21.4640818 C21.7624819,22.1786394 20.2375181,22.1786394 18.9998247,21.4640818 C17.7621313,20.7495241 16.9997831,19.42899 17,18 C16.9997831,16.57101 17.7621313,15.2504759 18.9998247,14.5359182 Z M6,15 C7.65685425,15 9,16.3431458 9,18 C9,19.6568542 7.65685425,21 6,21 C4.34314575,21 3,19.6568542 3,18 C3,16.3431458 4.34314575,15 6,15 Z M77,14 C78.6568542,14 80,15.3431458 80,17 C80,18.6568542 78.6568542,20 77,20 C75.3431458,20 74,18.6568542 74,17 C74,15.3431458 75.3431458,14 77,14 Z M56.5,5 C57.8807119,5 59,6.11928813 59,7.5 C59,8.88071187 57.8807119,10 56.5,10 C55.1192881,10 54,8.88071187 54,7.5 C54,6.11928813 55.1192881,5 56.5,5 Z M24.25,3.33493649 C25.0235027,2.8883545 25.9764973,2.8883545 26.75,3.33493649 C27.5235027,3.78151849 28,4.60683604 28,5.5 C28,6.39316396 27.5235027,7.21848151 26.75,7.66506351 C25.9764973,8.1116455 25.0235027,8.1116455 24.25,7.66506351 C23.4764973,7.21848151 23,6.39316396 23,5.5 C23,4.60683604 23.4764973,3.78151849 24.25,3.33493649 Z M42,0 C43.6568542,0 45,1.34314575 45,3 C45,4.65685425 43.6568542,6 42,6 C40.3431458,6 39,4.65685425 39,3 C39,1.34314575 40.3431458,0 42,0 Z"></path>
                    </g>
                </g>
            </g>
        </g>
    </g>
</svg>