<?xml version="1.0" encoding="UTF-8"?>
<svg width="93px" height="110px" viewBox="0 0 93 110" version="1.1" xmlns="http://www.w3.org/2000/svg" xmlns:xlink="http://www.w3.org/1999/xlink">
    <title>编组 13</title>
    <defs>
        <rect id="path-1" x="0" y="0" width="93" height="110"></rect>
    </defs>
    <g id="页面-1" stroke="none" stroke-width="1" fill="none" fill-rule="evenodd">
        <g id="温度样式" transform="translate(-306.000000, -405.000000)">
            <g id="编组" transform="translate(306.000000, 405.000000)">
                <mask id="mask-2" fill="white">
                    <use xlink:href="#path-1"></use>
                </mask>
                <use id="蒙版" fill-opacity="0.3" fill="#4B7382" xlink:href="#path-1"></use>
                <g mask="url(#mask-2)" fill="#FF7A40" fill-opacity="0.15" fill-rule="nonzero" id="形状结合">
                    <g transform="translate(20.000000, 20.000000)">
                        <path d="M61.338225,27.7852643 C67.3855118,30.6654313 71.3750721,36.6061929 71.7429784,43.2787412 C80.3430554,46.5700434 85.3615654,55.5136948 83.6754894,64.5440607 C81.9894134,73.5744265 74.0792838,80.1178485 64.8675747,80.1023548 C64.0731895,80.1019185 63.2796385,80.0510313 62.4917407,79.9500022 C57.5727255,86.2890677 49.9875863,90 41.9495624,90 C33.9115385,90 26.3263992,86.2890677 21.4073841,79.9500022 C20.6194862,80.0510313 19.8259353,80.1019185 19.0315501,80.1023548 C9.54020373,80.0684904 1.51402568,73.0894038 0.188657334,63.7176971 C-1.13671101,54.3459904 4.64095635,45.4258118 13.7527679,42.7759778 C14.3049103,36.2178395 18.3493123,30.4617103 24.3422284,27.7047006 C30.3351444,24.947691 37.3516295,25.6153171 42.7134961,29.4527465 C48.1495408,25.5444706 55.2909382,24.9050974 61.338225,27.7852643 Z M30.1221445,46.1339205 L29.7923637,46.1429693 L29.4669693,46.1352866 C26.6508551,46.1138012 23.9463719,47.2614661 22.0078788,49.3119026 C20.0318369,51.4194463 19.0437962,54.3776251 19.0437962,58.1864391 C19.038723,61.787038 20.0191046,64.6284132 21.9849608,66.7105648 C23.9274108,68.7794744 26.6689216,69.9145926 29.5097082,69.8261746 C31.6935274,69.9163305 33.8448316,69.2754548 35.6211781,68.0055616 C37.2699712,66.6591111 38.4473478,64.8294807 38.9896784,62.7805494 L38.9896784,62.7805494 L39.0741587,62.4370755 L34.5593102,61.0582848 L34.4988353,61.3538034 C34.2088106,62.6263755 33.5571426,63.791217 32.6189186,64.7071287 C31.7440186,65.4798856 30.6094848,65.8959682 29.4409542,65.8726257 C27.8684611,65.920096 26.362393,65.2395103 25.361548,64.0291598 C24.3225981,62.8027216 23.7954838,60.7383445 23.7954838,57.8436458 C23.7954838,55.116535 24.3378768,53.1410302 25.4226627,51.9171313 C26.4668527,50.7186621 28.0032796,50.0620646 29.5937409,50.1346063 C31.8556003,50.0444476 33.854933,51.5583248 34.3899196,53.7311242 L34.3899196,53.7311242 L34.4370809,53.9434204 L39.0206833,52.846482 L38.9311424,52.5072755 C38.5151833,51.0467884 37.7376677,49.71178 36.6677674,48.626316 C34.9590432,47.0712149 32.7490623,46.1914271 30.4509945,46.1361867 L30.4509945,46.1361867 L30.1221445,46.1339205 Z M59.7003698,49.281432 C57.5551121,47.1453002 54.6083657,46.0064391 51.5797541,46.1429693 C49.8853905,46.1110552 48.2019012,46.419336 46.6294634,47.0494671 C45.5076804,47.5275953 44.4962452,48.2302175 43.6577612,49.1138442 C42.7591651,50.0247133 42.0297637,51.0873351 41.503468,52.2523069 C40.750921,54.1167659 40.3945456,56.1166536 40.4568788,58.1254981 C40.4823432,61.7667243 41.5009215,64.6284132 43.5126137,66.7105648 C45.5956063,68.787638 48.312664,69.8261746 51.6637867,69.8261746 C55.0149095,69.8261746 57.7090492,68.7825596 59.7462058,66.6953295 C61.7528051,64.6284132 62.7561047,61.7337146 62.7561047,58.0112337 C62.7561047,54.2887528 61.7375264,51.3788189 59.7003698,49.281432 Z M51.7900996,50.0001559 L52.0709113,50.0085988 C53.6573493,50.092744 55.1551069,50.7912886 56.2279901,51.9646312 C57.4119436,53.2918699 58,55.2364289 58,57.9217723 C58,60.6071157 57.4197844,62.6519893 56.2593531,63.9560785 C55.0529784,65.2580787 53.3453137,66 51.5549018,66 C49.7644898,66 48.0568251,65.2580787 46.8504505,63.9560785 C45.6116115,62.6442728 44.9948057,60.6534147 45,57.9835043 C45.0052602,55.3135939 45.6063846,53.3175916 46.803406,51.9954972 C47.994398,50.6786996 49.7174465,49.9495296 51.5078573,50.0046392 L51.5078573,50.0046392 L51.7900996,50.0001559 Z M9.75018002,29.6029061 C11.1425764,30.4067808 12.0002228,31.8923791 12,33.5 C12.0002228,35.1076209 11.1425764,36.5932192 9.75018002,37.3970939 C8.35778368,38.2009687 6.64221632,38.2009687 5.24981998,37.3970939 C3.85742363,36.5932192 2.99977722,35.1076209 3,33.5 C2.99977722,31.8923791 3.85742363,30.4067808 5.24981998,29.6029061 C6.64221632,28.7990313 8.35778368,28.7990313 9.75018002,29.6029061 Z M78.75018,28.6029061 C80.1425764,29.4067808 81.0002228,30.8923791 81,32.5 C81.0002228,34.1076209 80.1425764,35.5932192 78.75018,36.3970939 C77.3577837,37.2009687 75.6422163,37.2009687 74.24982,36.3970939 C72.8574236,35.5932192 71.9997772,34.1076209 72,32.5 C71.9997772,30.8923791 72.8574236,29.4067808 74.24982,28.6029061 C75.6422163,27.7990313 77.3577837,27.7990313 78.75018,28.6029061 Z M43.7500001,14.6028857 C45.1423049,15.4067333 46,16.8923049 46,18.5 C46,20.9852814 43.9852814,23 41.5,23 C39.0147186,23 37,20.9852814 37,18.5 C37,16.8923049 37.8576951,15.4067333 39.2499999,14.6028857 C40.6423048,13.7990381 42.3576952,13.7990381 43.7500001,14.6028857 Z M64.0001753,15.5359182 C65.2378687,16.2504759 66.0002169,17.57101 66,19 C66.0002169,20.42899 65.2378687,21.7495241 64.0001753,22.4640818 C62.7624819,23.1786394 61.2375181,23.1786394 59.9998247,22.4640818 C58.7621313,21.7495241 57.9997831,20.42899 58,19 C57.9997831,17.57101 58.7621313,16.2504759 59.9998247,15.5359182 C61.2375181,14.8213606 62.7624819,14.8213606 64.0001753,15.5359182 Z M23.0001753,14.5359182 C24.2378687,15.2504759 25.0002169,16.57101 25,18 C25.0002169,19.42899 24.2378687,20.7495241 23.0001753,21.4640818 C21.7624819,22.1786394 20.2375181,22.1786394 18.9998247,21.4640818 C17.7621313,20.7495241 16.9997831,19.42899 17,18 C16.9997831,16.57101 17.7621313,15.2504759 18.9998247,14.5359182 C20.2375181,13.8213606 21.7624819,13.8213606 23.0001753,14.5359182 Z M6,15 C7.65685425,15 9,16.3431458 9,18 C9,19.6568542 7.65685425,21 6,21 C4.34314575,21 3,19.6568542 3,18 C3,16.3431458 4.34314575,15 6,15 Z M77,14 C78.6568542,14 80,15.3431458 80,17 C80,18.6568542 78.6568542,20 77,20 C75.3431458,20 74,18.6568542 74,17 C74,15.3431458 75.3431458,14 77,14 Z M56.5,5 C57.8807119,5 59,6.11928813 59,7.5 C59,8.88071187 57.8807119,10 56.5,10 C55.1192881,10 54,8.88071187 54,7.5 C54,6.11928813 55.1192881,5 56.5,5 Z M26.75,3.33493649 C27.5235027,3.78151849 28,4.60683604 28,5.5 C28,6.39316396 27.5235027,7.21848151 26.75,7.66506351 C25.9764973,8.1116455 25.0235027,8.1116455 24.25,7.66506351 C23.4764973,7.21848151 23,6.39316396 23,5.5 C23,4.60683604 23.4764973,3.78151849 24.25,3.33493649 C25.0235027,2.8883545 25.9764973,2.8883545 26.75,3.33493649 Z M42,0 C43.6568542,0 45,1.34314575 45,3 C45,4.65685425 43.6568542,6 42,6 C40.3431458,6 39,4.65685425 39,3 C39,1.34314575 40.3431458,0 42,0 Z"></path>
                    </g>
                </g>
            </g>
        </g>
    </g>
</svg>