<?xml version="1.0" encoding="UTF-8"?>
<svg width="300px" height="30px" viewBox="0 0 300 30" version="1.1" xmlns="http://www.w3.org/2000/svg" xmlns:xlink="http://www.w3.org/1999/xlink">
    <title>编组 13备份 2</title>
    <g id="页面-1" stroke="none" stroke-width="1" fill="none" fill-rule="evenodd">
        <g id="H栋数据模式总览-修改" transform="translate(-1600.000000, -237.000000)">
            <g id="编组-16备份-6" transform="translate(1590.000000, 80.000000)">
                <g id="编组-13备份-2" transform="translate(10.000000, 157.000000)">
                    <rect id="矩形" fill-opacity="0.3" fill="#4B7382" x="0" y="0" width="300" height="30"></rect>
                    <path d="M5,0 L5,1 L1,1 L1,5 L-4.4408921e-16,5 L4.4408921e-16,-1.43027032e-14 L5,0 Z" id="形状结合" fill="#00B0A1"></path>
                    <path d="M300,0 L300,1 L296,1 L296,5 L295,5 L295,-1.43027032e-14 L300,0 Z" id="形状结合备份-6" fill="#00B0A1" transform="translate(297.500000, 2.500000) scale(-1, 1) translate(-297.500000, -2.500000) "></path>
                    <path d="M5,25 L5,26 L1,26 L1,30 L-4.4408921e-16,30 L4.4408921e-16,25 L5,25 Z" id="形状结合备份-5" fill="#00B0A1" transform="translate(2.500000, 27.500000) scale(1, -1) translate(-2.500000, -27.500000) "></path>
                    <path d="M300,25 L300,26 L296,26 L296,30 L295,30 L295,25 L300,25 Z" id="形状结合备份-7" fill="#00B0A1" transform="translate(297.500000, 27.500000) scale(-1, -1) translate(-297.500000, -27.500000) "></path>
                </g>
            </g>
        </g>
    </g>
</svg>