<?xml version="1.0" encoding="UTF-8"?>
<svg width="32px" height="32px" viewBox="0 0 32 32" version="1.1" xmlns="http://www.w3.org/2000/svg" xmlns:xlink="http://www.w3.org/1999/xlink">
    <title>编组 35备份 6</title>
    <defs>
        <linearGradient x1="50%" y1="0%" x2="50%" y2="100%" id="linearGradient-1">
            <stop stop-color="#23C7AB" offset="0%"></stop>
            <stop stop-color="#78FFE8" offset="100%"></stop>
        </linearGradient>
        <rect id="path-2" x="0" y="0" width="28" height="28" rx="5"></rect>
        <filter x="-32.1%" y="-32.1%" width="164.3%" height="164.3%" filterUnits="objectBoundingBox" id="filter-3">
            <feGaussianBlur stdDeviation="3" in="SourceAlpha" result="shadowBlurInner1"></feGaussianBlur>
            <feOffset dx="0" dy="2" in="shadowBlurInner1" result="shadowOffsetInner1"></feOffset>
            <feComposite in="shadowOffsetInner1" in2="SourceAlpha" operator="arithmetic" k2="-1" k3="1" result="shadowInnerInner1"></feComposite>
            <feColorMatrix values="0 0 0 0 0.491786157   0 0 0 0 1   0 0 0 0 0.924529036  0 0 0 0.5 0" type="matrix" in="shadowInnerInner1" result="shadowMatrixInner1"></feColorMatrix>
            <feGaussianBlur stdDeviation="4.5" in="SourceAlpha" result="shadowBlurInner2"></feGaussianBlur>
            <feOffset dx="0" dy="-9" in="shadowBlurInner2" result="shadowOffsetInner2"></feOffset>
            <feComposite in="shadowOffsetInner2" in2="SourceAlpha" operator="arithmetic" k2="-1" k3="1" result="shadowInnerInner2"></feComposite>
            <feColorMatrix values="0 0 0 0 0.585396818   0 0 0 0 1   0 0 0 0 0.965244225  0 0 0 0.5 0" type="matrix" in="shadowInnerInner2" result="shadowMatrixInner2"></feColorMatrix>
            <feMerge>
                <feMergeNode in="shadowMatrixInner1"></feMergeNode>
                <feMergeNode in="shadowMatrixInner2"></feMergeNode>
            </feMerge>
        </filter>
        <path d="M3.2145198,8.31884328 C2.36753216,7.83922006 1.57701035,7.86743319 0.871187304,8.43169582 C0.193597194,8.93953219 -0.0887320329,9.64486046 0.0241996424,10.4912544 C0.137131337,11.2247958 0.391227626,11.9301241 0.814721447,12.5790261 C1.23821527,13.2561413 1.71817495,13.7357645 2.28283338,14.0178958 C3.80741115,14.8078635 5.13435845,14.5821584 6.29190824,13.3407807 C6.65893623,12.9457968 6.94126543,12.4943867 7.19536174,11.9301241 C7.47769095,11.3094352 7.64708848,10.7451726 7.6753214,10.18091 C7.6753214,9.89877866 7.81648601,9.75771299 8.04234938,9.75771297 C8.26821275,9.75771295 8.40937737,9.87056551 8.52230904,10.0680574 C8.86110411,11.055517 8.80463825,11.9865504 8.32467859,12.8329443 C7.84471893,13.6793382 7.90118477,14.4693059 8.40937737,15.1464211 C8.91756996,15.8235362 9.62339299,16.1056675 10.4703806,15.9646019 C11.2044366,15.8517493 11.9102596,15.5978312 12.5596168,15.1746342 C13.237207,14.7514372 13.7171666,14.271814 13.9994958,13.7075514 C14.7900176,12.1840423 14.5641543,10.8580251 13.2936728,9.72949985 C12.8984119,9.36272914 12.4466852,9.0523847 11.8820267,8.79846653 C11.2609024,8.51633522 10.696244,8.34705643 10.1315856,8.31884328 C9.84925638,8.31884328 9.70809177,8.17777762 9.70809175,7.95207257 C9.70809173,7.72636753 9.82102344,7.55708874 10.0468868,7.50066248 C10.4421477,7.35959682 10.8374086,7.27495743 11.2609024,7.27495743 C11.797328,7.27495743 12.3055205,7.41602309 12.7854802,7.66994127 C13.6324679,8.14956449 14.4229897,8.12135136 15.1288127,7.58530186 C15.8064028,7.07746549 16.088732,6.37213722 15.9758004,5.52574329 C15.8628687,4.79220187 15.6087724,4.0868736 15.1852785,3.43797157 C14.7617847,2.76085642 14.281825,2.28123318 13.7171666,1.99910188 C12.1925889,1.2091342 10.8656416,1.43483925 9.70809175,2.67621704 C9.34106377,3.07120088 9.05873456,3.5508241 8.80463827,4.0868736 C8.52230906,4.70756249 8.35291153,5.30003824 8.32467859,5.83608774 C8.32467859,6.09000592 8.18351398,6.23107158 7.95765063,6.25928471 C7.73178728,6.28749784 7.56238973,6.14643218 7.47769095,5.94894026 C7.33652634,5.55395642 7.2800605,5.15897258 7.2800605,4.70756249 C7.2800605,4.17151299 7.42122511,3.66367663 7.6753214,3.18405339 C8.15528106,2.33765946 8.09881522,1.54769178 7.59062264,0.870576619 C7.08243005,0.193461477 6.40483994,-0.088669847 5.55785228,0.0241826864 C4.82379631,0.13703522 4.11797328,0.390953396 3.46861609,0.814150362 C2.79102598,1.23734733 2.3110663,1.71697057 2.00050415,2.2812332 C1.20998235,3.80474229 1.43584572,5.13075945 2.7063272,6.28749784 C3.1015881,6.65426855 3.58154776,6.96461298 4.11797328,7.21853117 C4.73909755,7.50066248 5.30375599,7.64172814 5.86841442,7.66994127 C6.15074363,7.66994127 6.29190824,7.81100693 6.29190824,8.03671198 C6.29190824,8.26241703 6.17897655,8.43169582 5.95311318,8.5163352 C4.99319384,8.85489278 4.06150742,8.79846651 3.2145198,8.31884328 M8.60700782,7.41602309 C8.77640535,7.58530188 8.83287119,7.75458067 8.83287119,7.9802857 C8.83287119,8.20599073 8.74817243,8.40348267 8.60700782,8.57276146 C8.43761029,8.71382712 8.26821275,8.79846653 8.04234938,8.79846653 C7.81648601,8.79846653 7.61885556,8.71382714 7.44945803,8.57276146 C7.2800605,8.40348267 7.22359466,8.20599075 7.22359466,7.9802857 C7.22359466,7.75458066 7.30829342,7.55708874 7.44945803,7.41602309 C7.61885556,7.2467443 7.81648601,7.1621049 8.04234938,7.1621049 C8.26821275,7.19031803 8.43761029,7.24674428 8.60700782,7.41602309 L8.60700782,7.41602309 Z" id="path-4"></path>
        <filter x="-75.0%" y="-75.0%" width="250.0%" height="250.0%" filterUnits="objectBoundingBox" id="filter-5">
            <feOffset dx="0" dy="0" in="SourceAlpha" result="shadowOffsetOuter1"></feOffset>
            <feGaussianBlur stdDeviation="4" in="shadowOffsetOuter1" result="shadowBlurOuter1"></feGaussianBlur>
            <feColorMatrix values="0 0 0 0 0.501280845   0 0 0 0 1   0 0 0 0 0.963728154  0 0 0 0.5 0" type="matrix" in="shadowBlurOuter1"></feColorMatrix>
        </filter>
    </defs>
    <g id="页面-1" stroke="none" stroke-width="1" fill="none" fill-rule="evenodd">
        <g id="H栋数据模式总览-修改" transform="translate(-28.000000, -937.000000)">
            <g id="编组-16备份-8" transform="translate(10.000000, 695.000000)">
                <g id="编组-35备份-6" transform="translate(20.000000, 244.000000)">
                    <g id="矩形">
                        <use fill-opacity="0.6" fill="#0F3331" fill-rule="evenodd" xlink:href="#path-2"></use>
                        <use fill="black" fill-opacity="1" filter="url(#filter-3)" xlink:href="#path-2"></use>
                        <rect stroke="url(#linearGradient-1)" stroke-width="1" stroke-linejoin="square" x="0.5" y="0.5" width="27" height="27" rx="5"></rect>
                    </g>
                    <g id="编组" transform="translate(6.000000, 6.000000)" fill-rule="nonzero">
                        <g id="形状">
                            <use fill="black" fill-opacity="1" filter="url(#filter-5)" xlink:href="#path-4"></use>
                            <use fill="#FFFFFF" xlink:href="#path-4"></use>
                        </g>
                    </g>
                </g>
            </g>
        </g>
    </g>
</svg>