<?xml version="1.0" encoding="UTF-8"?>
<svg width="93px" height="110px" viewBox="0 0 93 110" version="1.1" xmlns="http://www.w3.org/2000/svg" xmlns:xlink="http://www.w3.org/1999/xlink">
    <title>编组 13</title>
    <defs>
        <rect id="path-1" x="0" y="0" width="93" height="110"></rect>
    </defs>
    <g id="页面-1" stroke="none" stroke-width="1" fill="none" fill-rule="evenodd">
        <g id="温度样式" transform="translate(-76.000000, -885.000000)">
            <g id="编组-13" transform="translate(76.000000, 885.000000)">
                <mask id="mask-2" fill="white">
                    <use xlink:href="#path-1"></use>
                </mask>
                <use id="矩形" fill-opacity="0.3" fill="#4B7382" xlink:href="#path-1"></use>
                <g id="编组" mask="url(#mask-2)" fill="#00B0A1" fill-opacity="0.15" fill-rule="nonzero">
                    <g transform="translate(14.000000, 28.000000)" id="形状">
                        <path d="M59.9901478,2.79747262e-06 C63.0203784,-0.00105538623 65.9268617,1.20195535 68.0699334,3.34427697 C70.2130051,5.48659859 71.4170332,8.39266053 71.4170331,11.4228913 L71.4170331,43.5797543 C75.5415457,46.4393719 78.4297267,50.7552089 79.5002446,55.658576 C80.672044,60.834016 79.7259076,66.2631399 76.8725009,70.737105 C74.0383711,75.2241061 69.5204926,78.3844595 64.3337241,79.5082494 C59.1536055,80.6857328 53.7175666,79.7285517 49.2511955,76.8525084 C44.7720711,74.0101309 41.6142895,69.4959288 40.4800511,64.3137316 C39.3009245,59.1349458 40.2582551,53.6994991 43.135792,49.2352026 C44.547814,47.0054947 46.3935074,45.0822741 48.5632625,43.5797543 L48.5632625,11.4228913 C48.5632618,8.39196717 49.7678389,5.4852986 51.9117759,3.3428619 C54.0557129,1.2004252 56.963224,-0.00211688523 59.9941474,2.79747262e-06 L59.9901478,2.79747262e-06 Z M17.7702665,58.1743306 L21.7978736,62.2019376 L12.8827433,71.1090687 L8.85513615,67.0854612 L17.7702665,58.1743306 Z M62.8458693,25.7014983 L57.1344264,25.7014983 L57.1344264,51.9189408 C53.2135141,53.3151115 50.8653054,57.3294222 51.5700243,61.4313994 C52.2747432,65.5333766 55.8280823,68.5338025 59.9901478,68.5413276 C62.2636445,68.5445073 64.4449998,67.6430497 66.0529814,66.0358185 C67.660963,64.4285872 68.5634386,62.2476529 68.5613154,59.974155 C68.5613154,56.2585175 66.1615457,53.1188237 62.8458693,51.9189408 L62.8458693,25.7014983 L62.8458693,25.7014983 Z M41.9959032,13.9986401 C42.6678376,13.9986401 43.3357724,14.0226377 43.9957081,14.0746326 L43.9957081,42.1078979 C38.8996185,46.6557056 35.9889859,53.1638801 35.9964884,59.994153 C35.9964884,61.8659704 36.2124674,63.6897925 36.616428,65.4336224 C23.6196498,62.6520699 14.8119008,50.5179214 16.1944474,37.2989259 C17.5769939,24.0799303 28.7048444,14.0308037 41.9959032,13.9986401 L41.9959032,13.9986401 Z M11.4268853,37.124384 L11.4268853,42.8398265 L0,42.8398265 L0,37.124384 L11.4268853,37.124384 L11.4268853,37.124384 Z M12.8827433,8.85514176 L21.8258708,17.7582732 L17.7702665,21.7898799 L8.85513615,12.8787493 L12.8827433,8.85514176 Z M42.8518197,5.60234736e-06 L42.8518197,11.4228913 L37.1363772,11.4228913 L37.1363772,5.60234736e-06 L42.8518197,5.60234736e-06 Z"></path>
                    </g>
                </g>
            </g>
        </g>
    </g>
</svg>