<?xml version="1.0" encoding="UTF-8"?>
<svg width="93px" height="110px" viewBox="0 0 93 110" version="1.1" xmlns="http://www.w3.org/2000/svg" xmlns:xlink="http://www.w3.org/1999/xlink">
    <title>编组 13</title>
    <defs>
        <rect id="path-1" x="0" y="0" width="93" height="110"></rect>
    </defs>
    <g id="页面-1" stroke="none" stroke-width="1" fill="none" fill-rule="evenodd">
        <g id="温度样式" transform="translate(-306.000000, -885.000000)">
            <g id="编组" transform="translate(306.000000, 885.000000)">
                <mask id="mask-2" fill="white">
                    <use xlink:href="#path-1"></use>
                </mask>
                <use id="蒙版" fill-opacity="0.3" fill="#4B7382" xlink:href="#path-1"></use>
                <g mask="url(#mask-2)" fill="#FF7A40" fill-opacity="0.15" fill-rule="nonzero" id="形状">
                    <g transform="translate(19.000000, 22.000000)">
                        <path d="M41.5,0 C44.1194077,0 46.2428572,2.12344948 46.2428572,4.74285717 L46.2428572,10.6714286 C46.2428572,13.2908363 44.1194077,15.4142857 41.5,15.4142857 C38.8805923,15.4142857 36.7571428,13.2908363 36.7571428,10.6714286 L36.7571428,4.74285717 C36.7571428,2.12344948 38.8805923,0 41.5,0 L41.5,0 Z M41.5,67.5857143 C44.1194077,67.5857143 46.2428572,69.7091637 46.2428572,72.3285714 L46.2428572,78.2571428 C46.2428572,80.8765505 44.1194077,83 41.5,83 C38.8805923,83 36.7571428,80.8765505 36.7571428,78.2571428 L36.7571428,72.3285714 C36.7571428,69.7091637 38.8805923,67.5857143 41.5,67.5857143 L41.5,67.5857143 Z M83,41.5 C83,44.1194077 80.8765505,46.2428572 78.2571428,46.2428572 L72.3285714,46.2428572 C69.7091637,46.2428572 67.5857143,44.1194077 67.5857143,41.5 C67.5857143,38.8805923 69.7091637,36.7571428 72.3285714,36.7571428 L78.2571428,36.7571428 C80.8765505,36.7571428 83,38.8805923 83,41.5 L83,41.5 Z M15.4142857,41.5 C15.4142857,44.1194077 13.2908363,46.2428572 10.6714286,46.2428572 L4.74285717,46.2428572 C2.12344948,46.2428572 -5.26562923e-16,44.1194077 -5.26562923e-16,41.5 C-5.26562923e-16,38.8805923 2.12344948,36.7571428 4.74285717,36.7571428 L10.6714286,36.7571428 C13.2908363,36.7571428 15.4142857,38.8805923 15.4142857,41.5 L15.4142857,41.5 Z M70.8452428,12.1547572 C71.7347539,13.0442224 72.2344799,14.2506237 72.2344799,15.50855 C72.2344799,16.7664763 71.7347539,17.9728776 70.8452428,18.8623428 L66.6525572,23.0550286 C65.4543624,24.2532234 63.7079554,24.7211718 62.0711909,24.2826021 C60.4344263,23.8440323 59.1559677,22.5655737 58.7173979,20.9288091 C58.2788282,19.2920446 58.7467766,17.5456376 59.9449714,16.3474428 L64.1376572,12.1547572 C65.0271224,11.2652461 66.2335237,10.7655201 67.49145,10.7655201 C68.7493763,10.7655201 69.9557776,11.2652461 70.8452428,12.1547572 L70.8452428,12.1547572 Z M23.0550286,59.9449714 C23.9445397,60.8344367 24.4442657,62.040838 24.4442657,63.2987643 C24.4442657,64.5566906 23.9445397,65.7630919 23.0550286,66.6525572 L18.8623428,70.8452428 C17.0100942,72.6974915 14.0070058,72.6974915 12.1547572,70.8452428 C10.3025085,68.9929942 10.3025085,65.9899058 12.1547572,64.1376572 L16.3474428,59.9449714 C17.2369081,59.0554603 18.4433094,58.5557343 19.7012357,58.5557343 C20.959162,58.5557343 22.1655633,59.0554603 23.0550286,59.9449714 L23.0550286,59.9449714 Z M70.8452428,70.8452428 C69.9557776,71.7347539 68.7493763,72.2344799 67.49145,72.2344799 C66.2335237,72.2344799 65.0271224,71.7347539 64.1376572,70.8452428 L59.9449714,66.6525572 C58.0927229,64.8003085 58.0927229,61.7972202 59.9449715,59.9449715 C61.7972202,58.0927229 64.8003085,58.0927229 66.6525572,59.9449714 L70.8452428,64.1376572 C71.7347539,65.0271224 72.2344799,66.2335237 72.2344799,67.49145 C72.2344799,68.7493763 71.7347539,69.9557776 70.8452428,70.8452428 L70.8452428,70.8452428 Z M23.0550286,23.0550286 C22.1655633,23.9445397 20.959162,24.4442657 19.7012357,24.4442657 C18.4433094,24.4442657 17.2369081,23.9445397 16.3474428,23.0550286 L12.1547572,18.8623428 C10.9565624,17.6641481 10.488614,15.9177411 10.9271837,14.2809766 C11.3657535,12.6442121 12.6442121,11.3657535 14.2809766,10.9271837 C15.9177411,10.488614 17.6641481,10.9565624 18.8623428,12.1547572 L23.0550286,16.3474428 C23.9445397,17.2369081 24.4442657,18.4433094 24.4442657,19.7012357 C24.4442657,20.959162 23.9445397,22.1655633 23.0550286,23.0550286 L23.0550286,23.0550286 Z M41.5,59.2857143 C31.6775428,59.2857143 23.7142857,51.3224571 23.7142857,41.5 C23.7142857,31.6775428 31.6775429,23.7142857 41.5,23.7142857 C51.3224572,23.7142857 59.2857143,31.6775429 59.2857143,41.5 C59.2857143,51.3224572 51.3224571,59.2857143 41.5,59.2857143 Z"></path>
                    </g>
                </g>
            </g>
        </g>
    </g>
</svg>