<?xml version="1.0" encoding="UTF-8"?>
<svg width="36px" height="36px" viewBox="0 0 36 36" version="1.1" xmlns="http://www.w3.org/2000/svg" xmlns:xlink="http://www.w3.org/1999/xlink">
    <title>ic_area</title>
    <g id="界面展示" stroke="none" stroke-width="1" fill="none" fill-rule="evenodd">
        <g id="BIM运维-首页-综合态势备份" transform="translate(-630.000000, -826.000000)" fill="#FFFFFF">
            <g id="ic_area" transform="translate(630.000000, 826.000000)">
                <path d="M29.265,4.62 L4.62,29.265 C4.755,29.775 5.025,30.24 5.385,30.615 C5.76,30.975 6.225,31.245 6.735,31.38 L31.395,6.735 C31.11,5.7 30.3,4.89 29.265,4.62 L29.265,4.62 Z M17.82,4.5 L4.5,17.82 L4.5,22.065 L22.065,4.5 L17.82,4.5 L17.82,4.5 Z M7.5,4.5 C5.85,4.5 4.5,5.85 4.5,7.5 L4.5,10.5 L10.5,4.5 L7.5,4.5 L7.5,4.5 Z M28.5,31.5 C29.325,31.5 30.075,31.17 30.615,30.615 C31.17,30.075 31.5,29.325 31.5,28.5 L31.5,25.5 L25.5,31.5 L28.5,31.5 L28.5,31.5 Z M13.935,31.5 L18.18,31.5 L31.5,18.18 L31.5,13.935 L13.935,31.5 L13.935,31.5 Z" id="Shape"></path>
            </g>
        </g>
    </g>
</svg>