<?xml version="1.0" encoding="UTF-8"?>
<svg width="36px" height="36px" viewBox="0 0 36 36" version="1.1" xmlns="http://www.w3.org/2000/svg" xmlns:xlink="http://www.w3.org/1999/xlink">
    <title>ic_assignment</title>
    <g id="界面展示" stroke="none" stroke-width="1" fill="none" fill-rule="evenodd">
        <g id="BIM运维-首页-综合态势备份" transform="translate(-793.000000, -907.000000)">
            <g id="ic_assignment" transform="translate(793.000000, 907.000000)">
                <polygon id="Bounds" points="0 0 36 0 36 36 0 36"></polygon>
                <path d="M29,6 L22.73,6 C22.1,4.26 20.45,3 18.5,3 C16.55,3 14.9,4.26 14.27,6 L8,6 C6.35,6 5,7.35 5,9 L5,30 C5,31.65 6.35,33 8,33 L29,33 C30.65,33 32,31.65 32,30 L32,9 C32,7.35 30.65,6 29,6 L29,6 Z M18.5,6 C19.325,6 20,6.675 20,7.5 C20,8.325 19.325,9 18.5,9 C17.675,9 17,8.325 17,7.5 C17,6.675 17.675,6 18.5,6 L18.5,6 Z M21.5,27 L11,27 L11,24 L21.5,24 L21.5,27 L21.5,27 Z M26,21 L11,21 L11,18 L26,18 L26,21 L26,21 Z M26,15 L11,15 L11,12 L26,12 L26,15 L26,15 Z" id="Shape"   fill="#FFFFFF"></path>
            </g>
        </g>
    </g>
</svg>