<?xml version="1.0" encoding="UTF-8"?>
<svg width="36px" height="36px" viewBox="0 0 36 36" version="1.1" xmlns="http://www.w3.org/2000/svg" xmlns:xlink="http://www.w3.org/1999/xlink">
    <title>ic_angle</title>
    <g id="界面展示" stroke="none" stroke-width="1" fill="none" fill-rule="evenodd">
        <g id="BIM运维-首页-综合态势备份" transform="translate(-630.000000, -862.000000)" fill="#FFFFFF">
            <g id="ic_angle" transform="translate(630.000000, 862.000000)">
                <path d="M24.36,11.64 C22.605,9.885 20.31,9 18,9 L18,18 L11.64,24.36 C15.15,27.87 20.85,27.87 24.375,24.36 C27.885,20.85 27.885,15.15 24.36,11.64 L24.36,11.64 Z M18,3 C9.72,3 3,9.72 3,18 C3,26.28 9.72,33 18,33 C26.28,33 33,26.28 33,18 C33,9.72 26.28,3 18,3 L18,3 Z M18,30 C11.37,30 6,24.63 6,18 C6,11.37 11.37,6 18,6 C24.63,6 30,11.37 30,18 C30,24.63 24.63,30 18,30 L18,30 Z" id="Shape"></path>
            </g>
        </g>
    </g>
</svg>