<?xml version="1.0" encoding="UTF-8"?>
<svg width="14px" height="14px" viewBox="0 0 14 14" version="1.1" xmlns="http://www.w3.org/2000/svg" xmlns:xlink="http://www.w3.org/1999/xlink">
    <title>编组</title>
    <g id="页面-1" stroke="none" stroke-width="1" fill="none" fill-rule="evenodd">
        <g id="构件右键菜单" transform="translate(-532.000000, -645.000000)" fill="#FFFFFF" fill-rule="nonzero">
            <g id="编组" transform="translate(532.000000, 645.000000)">
                <path d="M13.6856168,0 L0.314383172,0 C0.141273451,0 0,0.141273451 0,0.314383172 L0,13.6856168 C0,13.8587265 0.141273451,14 0.314383172,14 L13.6856168,14 C13.8587265,14 14,13.8587265 14,13.6856168 L14,0.314383172 C14,0.141273451 13.8587265,0 13.6856168,0 Z M12.7265492,12.7285389 L1.27345082,12.7285389 L1.27345082,1.27345082 L12.7285389,1.27345082 L12.7285389,12.7285389 L12.7265492,12.7285389 Z" id="形状"></path>
                <path d="M2.52501421,2.96077317 L3.79846504,2.96077317 L3.79846504,4.23422399 L2.52501421,4.23422399 L2.52501421,2.96077317 Z M5.07390563,2.96077317 L11.4749858,2.96077317 L11.4749858,4.23422399 L5.07390563,4.23422399 L5.07390563,2.96077317 Z M2.52501421,6.36327459 L3.79846504,6.36327459 L3.79846504,7.63672541 L2.52501421,7.63672541 L2.52501421,6.36327459 Z M5.07390563,6.36327459 L11.4749858,6.36327459 L11.4749858,7.63672541 L5.07390563,7.63672541 L5.07390563,6.36327459 Z M2.52501421,9.76577601 L3.79846504,9.76577601 L3.79846504,11.0392268 L2.52501421,11.0392268 L2.52501421,9.76577601 Z M5.07390563,9.76577601 L11.4749858,9.76577601 L11.4749858,11.0392268 L5.07390563,11.0392268 L5.07390563,9.76577601 Z" id="形状"></path>
            </g>
        </g>
    </g>
</svg>