<?xml version="1.0" encoding="UTF-8"?>
<svg width="14px" height="14px" viewBox="0 0 14 14" version="1.1" xmlns="http://www.w3.org/2000/svg" xmlns:xlink="http://www.w3.org/1999/xlink">
    <title>编组</title>
    <g id="页面-1" stroke="none" stroke-width="1" fill="none" fill-rule="evenodd">
        <g id="构件右键菜单" transform="translate(-532.000000, -613.000000)" fill="#FFFFFF" fill-rule="nonzero">
            <g id="编组" transform="translate(532.000000, 613.000000)">
                <path d="M13.1736125,0.825896523 C12.6121561,0.264440186 11.822668,0 10.8990436,0 C9.74738744,0 8.38494561,0.425403778 6.99950898,1.19572954 C5.61407235,0.425403778 4.25163053,0 3.09997435,0 C2.17634993,0 1.38494561,0.266356419 0.825405505,0.825896523 C-0.433559729,2.08486176 -0.203611741,4.50123186 1.18374112,7 C-0.203611741,9.49876814 -0.433559729,11.9151382 0.825405505,13.1741035 C1.38494561,13.7355598 2.17634993,14 3.09997435,14 C4.25163053,14 5.61407235,13.5745962 6.99950898,12.8042705 C8.38494561,13.5745962 9.74738744,14 10.8990436,14 C11.822668,14 12.6140724,13.7336436 13.1736125,13.1741035 C14.4325777,11.9151382 14.2026297,9.49876814 12.8152768,7 C14.2026297,4.50123186 14.4325777,2.08486176 13.1736125,0.825896523 Z M10.8990436,1.22638927 C11.5218194,1.22638927 11.995129,1.38352039 12.3055588,1.69395018 C12.8421041,2.23049548 12.9206697,3.29208869 12.5220932,4.60854093 C12.4052029,4.99562004 12.2480718,5.39228032 12.0564485,5.7946893 C11.5563116,5.08185053 10.9699442,4.3766767 10.2973464,3.70407884 C9.62474851,3.03148097 8.92149091,2.45277854 8.20865215,1.95264166 C9.17060123,1.49466192 10.1018906,1.22638927 10.8990436,1.22638927 Z M11.3819344,7.00191623 C10.8492215,7.84122639 10.1862048,8.66903915 9.42737649,9.42786751 C8.66279943,10.1924446 7.83307044,10.8554613 6.99950898,11.3843416 C6.16594753,10.8554613 5.33621854,10.1924446 4.57164148,9.42786751 C3.81281312,8.66903915 3.14979642,7.84122639 2.61708358,7.00191623 C3.12871785,6.19134958 3.77832092,5.36353682 4.57164148,4.57021626 C5.33621854,3.8056392 6.16594753,3.1426225 6.99950898,2.61374213 C7.83307044,3.1426225 8.66279943,3.8056392 9.42737649,4.57021626 C10.220697,5.36353682 10.8703001,6.19134958 11.3819344,7.00191623 Z M1.47884104,4.60854093 C1.07834829,3.29208869 1.15691385,2.23049548 1.69345916,1.69395018 C2.00388894,1.38352039 2.47719855,1.22638927 3.09997435,1.22638927 C3.89712738,1.22638927 4.82841673,1.49274569 5.79036581,1.95072543 C5.07944328,2.4508623 4.37426945,3.02956474 3.70167159,3.70216261 C3.02907372,4.37476047 2.44270635,5.0799343 1.94256948,5.79277306 C1.75286239,5.39228032 1.59573126,4.99370381 1.47884104,4.60854093 L1.47884104,4.60854093 Z M3.09997435,12.7716945 C2.47719855,12.7716945 2.00388894,12.6145634 1.69345916,12.3041336 C0.997866496,11.6085409 1.09367816,10.0276485 1.94831818,8.21297564 C2.44653882,8.92198193 3.03098996,9.62523953 3.70167159,10.2940049 C4.37426945,10.9666028 5.07752705,11.5453052 5.79036581,12.0454421 C4.82841673,12.5053381 3.89904361,12.7716945 3.09997435,12.7716945 Z M12.3055588,12.3060498 C11.995129,12.6164796 11.5218194,12.7736107 10.8990436,12.7736107 C10.0999744,12.7736107 9.17060123,12.5072543 8.20865215,12.0492746 C8.91957468,11.5491377 9.62474851,10.9704353 10.2973464,10.2978374 C10.968028,9.62715576 11.5524791,8.9258144 12.0506998,8.2168081 C12.9053398,10.0276485 13.0011515,11.6104572 12.3055588,12.3060498 Z" id="形状"></path>
                <path d="M6.99950898,5.36736929 C6.09696313,5.36736929 5.36687827,6.09937038 5.36687827,7 C5.36687827,7.90254585 6.09887936,8.63263071 6.99950898,8.63263071 C7.90205483,8.63263071 8.6321397,7.90062962 8.6321397,7 C8.6321397,6.09745415 7.90205483,5.36736929 6.99950898,5.36736929 L6.99950898,5.36736929 Z M6.99950898,7.64960307 C6.64117337,7.64960307 6.34990592,7.35833561 6.34990592,7 C6.34990592,6.64166439 6.64117337,6.35039693 6.99950898,6.35039693 C7.3578446,6.35039693 7.64912139,6.64166439 7.64912139,7 C7.65102828,7.35833561 7.3578446,7.64960307 6.99950898,7.64960307 Z" id="形状"></path>
            </g>
        </g>
    </g>
</svg>