<?xml version="1.0" encoding="UTF-8"?>
<svg width="14px" height="14px" viewBox="0 0 14 14" version="1.1" xmlns="http://www.w3.org/2000/svg" xmlns:xlink="http://www.w3.org/1999/xlink">
    <title>编组</title>
    <g id="页面-1" stroke="none" stroke-width="1" fill="none" fill-rule="evenodd">
        <g id="构件右键菜单" transform="translate(-532.000000, -741.000000)" fill="#FFFFFF" fill-rule="nonzero">
            <g id="编组" transform="translate(532.000000, 741.000000)">
                <path d="M11.9506148,2.05078856 C10.5846699,0.684843625 8.79210104,0 7.00140337,0 C5.20883454,0 3.41813686,0.684843625 2.05032077,2.05078856 C-0.683440257,4.78454959 -0.683440257,9.21545041 2.05032077,11.9492114 C3.4162657,13.3151564 5.20883454,14 6.99953221,14 C8.79022989,14 10.5827987,13.3170275 11.9506148,11.9492114 C14.6825047,9.21545041 14.6825047,4.78454959 11.9506148,2.05078856 Z M11.1011093,11.1015771 C10.0046111,12.1980754 8.54885057,12.8005881 6.99953221,12.8005881 C5.45021385,12.8005881 3.9925822,12.1980754 2.89795509,11.1015771 C0.635725742,8.83934777 0.635725742,5.16065223 2.89795509,2.89842288 C3.99445335,1.80192462 5.45021385,1.19941192 6.99953221,1.19941192 C8.54885057,1.19941192 10.0064822,1.80192462 11.1011093,2.89842288 C12.1976076,3.99492114 12.8001203,5.45068164 12.8001203,7 C12.8001203,8.54931836 12.1976076,10.00695 11.1011093,11.1015771 Z" id="形状"></path>
                <polygon id="路径" points="9.13826517 4.01550388 6.99953221 6.15236568 4.86267041 4.01550388 4.01503609 4.86126704 6.15189789 7 4.01503609 9.13873296 4.86267041 9.98636728 6.99953221 7.84763432 9.13826517 9.98636728 9.98589949 9.13873296 7.84716653 7 9.98589949 4.86126704"></polygon>
            </g>
        </g>
    </g>
</svg>