<?xml version="1.0" encoding="UTF-8"?>
<svg width="36px" height="36px" viewBox="0 0 36 36" version="1.1" xmlns="http://www.w3.org/2000/svg" xmlns:xlink="http://www.w3.org/1999/xlink">
    <title>ic_distance</title>
    <g id="界面展示" stroke="none" stroke-width="1" fill="none" fill-rule="evenodd">
        <g id="BIM运维-首页-综合态势备份" transform="translate(-630.000000, -790.000000)" fill="#FFFFFF">
            <g id="ic_distance" transform="translate(630.000000, 790.000000)">
                <path d="M25.2125,16.75 L18,16.75 L18,19.25 L25.2125,19.25 L22.225,22.2375 L24,24 L30,18 L24,12 L22.2375,13.7625 L25.2125,16.75 Z M34,10 L34,25 L31,25 L31,10 L34,10 Z M5,10 L5,25 L2,25 L2,10 L5,10 Z M12,12 L13.7625,13.7625 L10.7875,16.75 L18,16.75 L18,19.25 L10.7875,19.25 L13.775,22.2375 L12,24 L6,18 L12,12 Z" id="Shape"></path>
            </g>
        </g>
    </g>
</svg>