<?xml version="1.0" encoding="UTF-8"?>
<svg width="36px" height="37px" viewBox="0 0 36 37" version="1.1" xmlns="http://www.w3.org/2000/svg" xmlns:xlink="http://www.w3.org/1999/xlink">
    <title>ic_directions_walk</title>
    <g id="界面展示" stroke="none" stroke-width="1" fill="none" fill-rule="evenodd">
        <g id="BIM运维-首页-综合态势备份" transform="translate(-717.000000, -907.000000)">
            <g id="ic_directions_walk" transform="translate(717.000000, 907.000000)">
                <polygon id="Bounds" points="0 0 36 0 36 36 0 36"></polygon>
                <path d="M20,7.4 C21.485,7.4 22.7,6.185 22.7,4.7 C22.7,3.2 21.485,2 20,2 C18.5,2 17.3,3.215 17.3,4.7 C17.3,6.185 18.5,7.4 20,7.4 L20,7.4 Z M20.18,16.7 L27.5,16.7 L27.5,14 L22.07,14 L19.07,9.005 C18.62,8.255 17.81,7.76 16.88,7.76 C16.625,7.76 16.37,7.805 16.145,7.865 L8,10.4 L8,18.2 L10.7,18.2 L10.7,12.695 L13.865,11.705 L8,34.7 L10.7,34.7 L15.005,22.535 L18.5,27.2 L18.5,34.7 L21.2,34.7 L21.2,25.085 L17.465,18.275 L18.56,13.97 L20.18,16.7 L20.18,16.7 Z" id="Shape"   fill="#FFFFFF"></path>
            </g>
        </g>
    </g>
</svg>