<?xml version="1.0" encoding="UTF-8"?>
<svg width="36px" height="36px" viewBox="0 0 36 36" version="1.1" xmlns="http://www.w3.org/2000/svg" xmlns:xlink="http://www.w3.org/1999/xlink">
    <title>ic_fullscreen</title>
    <g id="界面展示" stroke="none" stroke-width="1" fill="none" fill-rule="evenodd">
        <g id="BIM运维-首页-综合态势备份" transform="translate(-907.000000, -907.000000)">
            <g id="ic_fullscreen" transform="translate(907.000000, 907.000000)">
                <polygon id="Bounds" points="0 0 36 0 36 36 0 36"></polygon>
                <path d="M10.5,21 L7.5,21 L7.5,28.5 L15,28.5 L15,25.5 L10.5,25.5 L10.5,21 L10.5,21 Z M7.5,15 L10.5,15 L10.5,10.5 L15,10.5 L15,7.5 L7.5,7.5 L7.5,15 L7.5,15 Z M25.5,25.5 L21,25.5 L21,28.5 L28.5,28.5 L28.5,21 L25.5,21 L25.5,25.5 L25.5,25.5 Z M21,7.5 L21,10.5 L25.5,10.5 L25.5,15 L28.5,15 L28.5,7.5 L21,7.5 L21,7.5 Z" id="Shape"   fill="#FFFFFF"></path>
            </g>
        </g>
    </g>
</svg>