<?xml version="1.0" encoding="UTF-8"?>
<svg width="36px" height="36px" viewBox="0 0 36 36" version="1.1" xmlns="http://www.w3.org/2000/svg" xmlns:xlink="http://www.w3.org/1999/xlink">
    <title>ic_flip</title>
    <g id="界面展示" stroke="none" stroke-width="1" fill="none" fill-rule="evenodd">
        <g id="BIM运维-首页-综合态势备份" transform="translate(-679.000000, -907.000000)">
            <g id="ic_flip" transform="translate(679.000000, 907.000000)">
                <polygon id="Bounds" points="0 0 36 0 36 36 0 36"></polygon>
                <path d="M22.5,31.5 L25.5,31.5 L25.5,28.5 L22.5,28.5 L22.5,31.5 L22.5,31.5 Z M28.5,13.5 L31.5,13.5 L31.5,10.5 L28.5,10.5 L28.5,13.5 L28.5,13.5 Z M4.5,7.5 L4.5,28.5 C4.5,30.15 5.85,31.5 7.5,31.5 L13.5,31.5 L13.5,28.5 L7.5,28.5 L7.5,7.5 L13.5,7.5 L13.5,4.5 L7.5,4.5 C5.85,4.5 4.5,5.85 4.5,7.5 L4.5,7.5 Z M28.5,4.5 L28.5,7.5 L31.5,7.5 C31.5,5.85 30.15,4.5 28.5,4.5 L28.5,4.5 Z M16.5,34.5 L19.5,34.5 L19.5,1.5 L16.5,1.5 L16.5,34.5 L16.5,34.5 Z M28.5,25.5 L31.5,25.5 L31.5,22.5 L28.5,22.5 L28.5,25.5 L28.5,25.5 Z M22.5,7.5 L25.5,7.5 L25.5,4.5 L22.5,4.5 L22.5,7.5 L22.5,7.5 Z M28.5,19.5 L31.5,19.5 L31.5,16.5 L28.5,16.5 L28.5,19.5 L28.5,19.5 Z M28.5,31.5 C30.15,31.5 31.5,30.15 31.5,28.5 L28.5,28.5 L28.5,31.5 L28.5,31.5 Z" id="Shape"   fill="#FFFFFF"></path>
            </g>
        </g>
    </g>
</svg>