<?xml version="1.0" encoding="UTF-8"?>
<svg width="14px" height="14px" viewBox="0 0 14 14" version="1.1" xmlns="http://www.w3.org/2000/svg" xmlns:xlink="http://www.w3.org/1999/xlink">
    <title>编组</title>
    <g id="页面-1" stroke="none" stroke-width="1" fill="none" fill-rule="evenodd">
        <g id="构件右键菜单" transform="translate(-532.000000, -581.000000)" fill="#FFFFFF" fill-rule="nonzero">
            <g id="编组" transform="translate(532.000000, 581.000000)">
                <path d="M13.901565,2.42370028 L11.7833978,2.21747607 L11.5754259,0.0993088104 C11.5666876,0.00668268413 11.4530895,-0.0335135593 11.388426,0.0328976255 L8.77567015,2.64565345 L8.93645512,4.30069008 L5.84134437,7.39405317 C5.79940047,7.43599707 5.79940047,7.50240826 5.84134437,7.54435217 L6.45652167,8.15952946 C6.49846557,8.20147336 6.56487676,8.20147336 6.60682066,8.15952946 L9.70193141,5.06441871 L11.356968,5.22520368 L13.9679762,2.61244786 C14.0343874,2.54603667 13.9941911,2.43418626 13.901565,2.42370028 Z M11.0319028,4.32515736 L9.7963052,4.20456863 L9.67571647,2.96897106 L10.8693701,1.7753174 L10.9200524,2.30311155 L10.9882112,3.01091497 L11.6960146,3.07907382 L12.2238088,3.12975604 L11.0319028,4.32515736 L11.0319028,4.32515736 Z" id="形状"></path>
                <path d="M11.5562016,5.78795109 L11.1682205,5.74950251 C11.9162201,7.63348297 11.5317343,9.86524831 10.0095201,11.3874626 C7.97174528,13.426985 4.6529337,13.426985 2.61341126,11.3874626 C0.573888817,9.34794013 0.573888817,6.02912855 2.61341126,3.98960611 C4.13562552,2.46739185 6.36739086,2.08290604 8.25137132,2.8309057 L8.21292274,2.44292457 L8.77741781,1.8784295 C6.47924128,0.904981343 3.72317711,1.35063535 1.84968263,3.22412982 C-0.616269523,5.69008198 -0.616269523,9.68698671 1.84793497,12.1511912 C4.31213946,14.6153957 8.30904419,14.6171434 10.7749963,12.1511912 C12.6484908,10.2776967 13.0941448,7.52163255 12.1206967,5.22345602 L11.5562016,5.78795109 Z" id="路径"></path>
                <path d="M6.86023176,5.61143715 L7.69910989,4.77255903 C6.44254036,4.15388641 4.88187752,4.36360594 3.83677519,5.40870827 C2.52428046,6.72120301 2.52428046,8.84985625 3.83677519,10.1640986 C5.14926992,11.4765934 7.27792316,11.4765934 8.59216556,10.1640986 C9.63726789,9.11899631 9.84698742,7.55833347 9.2283148,6.30176394 L8.39118434,7.13889441 C8.62012816,7.91485667 8.4401189,8.78694039 7.82843693,9.39862235 C6.93887659,10.2881827 5.49181182,10.2881827 4.60225148,9.39862235 C3.71269113,8.50906201 3.71269113,7.06199724 4.60225148,6.1724369 C5.21043812,5.56425026 6.0842695,5.38249333 6.86023176,5.61143715 Z" id="路径"></path>
            </g>
        </g>
    </g>
</svg>