<?xml version="1.0" encoding="UTF-8"?>
<svg width="36px" height="36px" viewBox="0 0 36 36" version="1.1" xmlns="http://www.w3.org/2000/svg" xmlns:xlink="http://www.w3.org/1999/xlink">
    <title>ic_apps</title>
    <g id="界面展示" stroke="none" stroke-width="1" fill="none" fill-rule="evenodd">
        <g id="BIM运维-首页-综合态势备份" transform="translate(-557.000000, -309.000000)" fill="#FFFFFF">
            <g id="ic_apps" transform="translate(557.000000, 309.000000)">
                <path d="M15,30 L21,30 L21,24 L15,24 L15,30 L15,30 Z M6,30 L12,30 L12,24 L6,24 L6,30 L6,30 Z M6,21 L12,21 L12,15 L6,15 L6,21 L6,21 Z M15,21 L21,21 L21,15 L15,15 L15,21 L15,21 Z M15,12 L21,12 L21,6 L15,6 L15,12 L15,12 Z M24,21 L30,21 L30,15 L24,15 L24,21 L24,21 Z M24,30 L30,30 L30,24 L24,24 L24,30 L24,30 Z" id="Shape"></path>
            </g>
        </g>
    </g>
</svg>