<?xml version="1.0" encoding="UTF-8"?>
<svg width="14px" height="14px" viewBox="0 0 14 14" version="1.1" xmlns="http://www.w3.org/2000/svg" xmlns:xlink="http://www.w3.org/1999/xlink">
    <title>编组</title>
    <g id="页面-1" stroke="none" stroke-width="1" fill="none" fill-rule="evenodd">
        <g id="构件右键菜单" transform="translate(-532.000000, -677.000000)" fill="#FFFFFF" fill-rule="nonzero">
            <g id="编组" transform="translate(532.000000, 677.000000)">
                <path d="M10.1747434,0 L3.827252,0 C3.75741163,0 3.6995439,0.0555162158 3.6995439,0.126894208 L3.6995439,1.11230704 L0,1.11230704 L0,7.57598074 L3.6995439,7.57598074 L3.6995439,8.5732899 C3.6995439,8.64268517 3.75541619,8.70018411 3.827252,8.70018411 L10.1747434,8.70018411 C10.2445838,8.70018411 10.3024515,8.64466789 10.3024515,8.5732899 L10.3024515,5.45843365 C10.3024515,5.38903838 10.2465792,5.33153944 10.1747434,5.33153944 L3.827252,5.33153944 C3.75741163,5.33153944 3.6995439,5.38705566 3.6995439,5.45843365 L3.6995439,6.43195015 L1.14937286,6.43195015 L1.14937286,2.25633763 L3.6995439,2.25633763 L3.6995439,3.24175046 C3.6995439,3.31114573 3.75541619,3.36864467 3.827252,3.36864467 L10.1747434,3.36864467 C10.2445838,3.36864467 10.3024515,3.31312845 10.3024515,3.24175046 L10.3024515,0.126894208 C10.3004561,0.0574989378 10.2445838,0 10.1747434,0 Z M4.97662486,6.60246424 L9.0213797,6.60246424 L9.0213797,7.42925931 L4.97662486,7.42925931 L4.97662486,6.60246424 L4.97662486,6.60246424 Z M9.02337514,2.09771987 L4.97662486,2.09771987 L4.97662486,1.2709248 L9.0213797,1.2709248 L9.0213797,2.09771987 L9.02337514,2.09771987 Z M10.1747434,10.6313553 L3.827252,10.6313553 C3.75741163,10.6313553 3.6995439,10.6868715 3.6995439,10.7582495 L3.6995439,13.8731058 C3.6995439,13.9425011 3.75541619,14 3.827252,14 L10.1747434,14 C10.2445838,14 10.3024515,13.9444838 10.3024515,13.8731058 L10.3024515,10.7582495 C10.3004561,10.6888543 10.2445838,10.6313553 10.1747434,10.6313553 L10.1747434,10.6313553 Z M9.02337514,12.7290752 L4.97662486,12.7290752 L4.97662486,11.9022801 L9.0213797,11.9022801 L9.0213797,12.7290752 L9.02337514,12.7290752 Z" id="形状"></path>
                <polygon id="路径" points="10.3004561 6.42401926 10.3004561 7.56606713 12.8506271 7.56606713 12.8506271 11.7436624 10.3004561 11.7436624 10.3004561 12.887693 14 12.887693 14 6.42401926"></polygon>
            </g>
        </g>
    </g>
</svg>