<?xml version="1.0" encoding="UTF-8"?>
<svg width="14px" height="14px" viewBox="0 0 14 14" version="1.1" xmlns="http://www.w3.org/2000/svg" xmlns:xlink="http://www.w3.org/1999/xlink">
    <title>编组</title>
    <g id="页面-1" stroke="none" stroke-width="1" fill="none" fill-rule="evenodd">
        <g id="构件右键菜单" transform="translate(-532.000000, -709.000000)" fill="#FFFFFF" fill-rule="nonzero">
            <g id="编组" transform="translate(532.000000, 709.000000)">
                <path d="M6.00706826,7.88818398 L0.310401672,4.8295004 C0.254688552,4.79989426 0.200965185,4.7850912 0.155200836,4.7850912 C0.0616823836,4.7850912 0,4.84430346 0,4.95162569 L0,10.4417129 C0,10.6008459 0.139282802,10.8062384 0.310401672,10.8969072 L6.00706826,13.9555908 C6.06278138,13.9851969 6.11650475,14 6.1622691,14 C6.25578755,14 6.31746993,13.9407877 6.31746993,13.8334655 L6.31746993,8.34337827 C6.31746993,8.18424531 6.17818713,7.98070315 6.00706826,7.88818398 Z M5.04402717,12.0719006 L1.27344276,10.0457309 L1.27344276,6.71319059 L5.04402717,8.73750991 L5.04402717,12.0719006 L5.04402717,12.0719006 Z M13.8447105,4.7850912 C13.7989461,4.7850912 13.7452228,4.79989426 13.6895096,4.8295004 L7.99284306,7.88818398 C7.82172419,7.98070315 7.68244139,8.18424531 7.68244139,8.34337827 L7.68244139,13.8334655 C7.68244139,13.9407877 7.74412377,14 7.83764223,14 C7.88340657,14 7.93712994,13.9851969 7.99284306,13.9555908 L13.6895096,10.8969072 C13.8606285,10.8043881 13.9999567,10.6008459 13.9999567,10.4417129 L13.9999567,4.95162569 C14.0019011,4.84430346 13.9382289,4.7850912 13.8447105,4.7850912 Z M12.7284583,10.0457309 L8.95588415,12.0719006 L8.95588415,8.7393603 L12.7284583,6.71319059 L12.7284583,10.0457309 Z M13.3253846,3.30848533 L7.25265446,0.0536611155 C7.18699257,0.0185038329 7.09944338,0 7.01189419,0 C6.924345,0 6.83679581,0.0185038329 6.77113392,0.0536611155 L0.700393517,3.30848533 C0.567079978,3.38065028 0.567079978,3.49537404 0.700393517,3.56753899 L6.77113392,6.8223632 C6.83679581,6.85752049 6.924345,6.87602432 7.01189419,6.87602432 C7.09944338,6.87602432 7.18699257,6.85752049 7.25265446,6.8223632 L13.3253846,3.56753899 C13.4586981,3.49537404 13.4586981,3.38065028 13.3253846,3.30848533 Z M7.01189419,5.58445678 L3.01049827,3.43801216 L7.01189419,1.29156754 L11.0152799,3.43801216 L7.01189419,5.58445678 Z" id="形状"></path>
            </g>
        </g>
    </g>
</svg>