<?xml version="1.0" encoding="UTF-8"?>
<svg width="36px" height="36px" viewBox="0 0 36 36" version="1.1" xmlns="http://www.w3.org/2000/svg" xmlns:xlink="http://www.w3.org/1999/xlink">
    <title>ic_straighten</title>
    <g id="界面展示" stroke="none" stroke-width="1" fill="none" fill-rule="evenodd">
        <g id="BIM运维-首页-综合态势备份" transform="translate(-641.000000, -907.000000)">
            <g id="ic_straighten" transform="translate(641.000000, 907.000000)">
                <polygon id="Bounds" points="0 0 36 0 36 36 0 36"></polygon>
                <path d="M31.5,9 L4.5,9 C2.85,9 1.5,10.35 1.5,12 L1.5,24 C1.5,25.65 2.85,27 4.5,27 L31.5,27 C33.15,27 34.5,25.65 34.5,24 L34.5,12 C34.5,10.35 33.15,9 31.5,9 L31.5,9 Z M31.5,24 L4.5,24 L4.5,12 L7.5,12 L7.5,18 L10.5,18 L10.5,12 L13.5,12 L13.5,18 L16.5,18 L16.5,12 L19.5,12 L19.5,18 L22.5,18 L22.5,12 L25.5,12 L25.5,18 L28.5,18 L28.5,12 L31.5,12 L31.5,24 L31.5,24 Z" id="Shape"   fill="#FFFFFF"></path>
            </g>
        </g>
    </g>
</svg>