<?xml version="1.0" encoding="UTF-8"?>
<svg width="36px" height="36px" viewBox="0 0 36 36" version="1.1" xmlns="http://www.w3.org/2000/svg" xmlns:xlink="http://www.w3.org/1999/xlink">
    <title>ic_settings</title>
    <g id="界面展示" stroke="none" stroke-width="1" fill="none" fill-rule="evenodd">
        <g id="BIM运维-首页-综合态势备份" transform="translate(-831.000000, -907.000000)">
            <g id="ic_settings" transform="translate(831.000000, 907.000000)">
                <polygon id="Bounds" points="0 0 36 0 36 36 0 36"></polygon>
                <path d="M29.145,19.47 C29.205,18.99 29.25,18.51 29.25,18 C29.25,17.49 29.205,17.01 29.145,16.53 L32.31,14.055 C32.595,13.83 32.67,13.425 32.49,13.095 L29.49,7.905 C29.31,7.575 28.905,7.455 28.575,7.575 L24.84,9.075 C24.06,8.475 23.22,7.98 22.305,7.605 L21.735,3.63 C21.69,3.27 21.375,3 21,3 L15,3 C14.625,3 14.31,3.27 14.265,3.63 L13.695,7.605 C12.78,7.98 11.94,8.49 11.16,9.075 L7.425,7.575 C7.08,7.44 6.69,7.575 6.51,7.905 L3.51,13.095 C3.315,13.425 3.405,13.83 3.69,14.055 L6.855,16.53 C6.795,17.01 6.75,17.505 6.75,18 C6.75,18.495 6.795,18.99 6.855,19.47 L3.69,21.945 C3.405,22.17 3.33,22.575 3.51,22.905 L6.51,28.095 C6.69,28.425 7.095,28.545 7.425,28.425 L11.16,26.925 C11.94,27.525 12.78,28.02 13.695,28.395 L14.265,32.37 C14.31,32.73 14.625,33 15,33 L21,33 C21.375,33 21.69,32.73 21.735,32.37 L22.305,28.395 C23.22,28.02 24.06,27.51 24.84,26.925 L28.575,28.425 C28.92,28.56 29.31,28.425 29.49,28.095 L32.49,22.905 C32.67,22.575 32.595,22.17 32.31,21.945 L29.145,19.47 L29.145,19.47 Z M18,23.25 C15.105,23.25 12.75,20.895 12.75,18 C12.75,15.105 15.105,12.75 18,12.75 C20.895,12.75 23.25,15.105 23.25,18 C23.25,20.895 20.895,23.25 18,23.25 L18,23.25 Z" id="Shape"   fill="#FFFFFF"></path>
            </g>
        </g>
    </g>
</svg>