<?xml version="1.0" encoding="UTF-8"?>
<svg width="14px" height="14px" viewBox="0 0 14 14" version="1.1" xmlns="http://www.w3.org/2000/svg" xmlns:xlink="http://www.w3.org/1999/xlink">
    <title>编组</title>
    <g id="页面-1" stroke="none" stroke-width="1" fill="none" fill-rule="evenodd">
        <g id="构件右键菜单" transform="translate(-532.000000, -709.000000)" fill="#FFFFFF" fill-rule="nonzero">
            <g id="编组" transform="translate(532.000000, 709.000000)">
                <path d="M11.9515249,2.04594138 C9.40865948,-0.496924031 5.37962607,-0.668712267 2.63301182,1.52658159 L2.63301182,0.393977754 L1.35458774,0.393977754 L1.35458774,3.07467326 C1.35458774,3.46619063 1.67219622,3.78379912 2.06171606,3.78379912 L4.7444091,3.78379912 L4.7444091,2.50537503 L3.45599733,2.50537503 C5.70122963,0.733559152 8.97519381,0.879379399 11.0446428,2.94882839 C13.2758923,5.18007792 13.2758923,8.81160134 11.0446428,11.0428509 C9.96397494,12.1235187 8.52574784,12.718785 6.99763155,12.718785 C5.46951526,12.718785 4.03528324,12.1255163 2.95461538,11.0448484 C1.8619623,9.95019779 1.26469855,8.49599039 1.27868131,6.94989627 L0.000257223544,6.93990858 C-0.0157230775,8.83157672 0.713378159,10.6113827 2.05172837,11.949733 C3.37409829,13.2721029 5.1319314,14.0012041 7.00362417,14.0012041 C8.87531693,14.0012041 10.63315,13.2721029 11.95552,11.949733 C14.6821588,9.21909902 14.6821588,4.77657532 11.9515249,2.04594138 Z" id="路径"></path>
            </g>
        </g>
    </g>
</svg>