<?xml version="1.0" encoding="UTF-8"?>
<svg width="56px" height="40px" viewBox="0 0 56 40" version="1.1" xmlns="http://www.w3.org/2000/svg" xmlns:xlink="http://www.w3.org/1999/xlink">
    <title>LOGO</title>
    <g id="界面展示" stroke="none" stroke-width="1" fill="none" fill-rule="evenodd">
        <g id="BIM运维-首页-能源能耗" transform="translate(-40.000000, -20.000000)" stroke="#FFFFFF">
            <g id="编组-16" transform="translate(40.000000, 0.000000)">
                <g id="LOGO" transform="translate(0.000000, 20.000000)">
                    <path d="M31.297074,0.5 L30.2072785,5.40909091 L19.7309945,5.40909091 L16.6454945,16.8629577 L26.4773011,16.8635953 L25.4164819,21.3181746 L15.4458589,21.317993 L10.5484474,39.5 L0.649152452,39.5 L10.9465138,0.5 L31.297074,0.5 Z" id="Combined-Shape" fill="#00A390"></path>
                    <path d="M38.0426885,0.5 C42.0619338,0.5 46.9465741,2.30775026 50.4297977,6.26338243 C53.173364,9.37904201 55.0398646,13.8266765 54.9540739,19.7655052 C54.8650379,25.9289964 52.836762,30.4146897 49.7097308,33.5020529 C45.9742318,37.1901652 40.6915224,38.8804757 35.3508735,39.1009226 C34.9024108,39.1194338 29.1916755,39.2168279 23.5215715,39.3105531 C28.3456062,38.6665512 33.5331876,37.7493285 36.6167514,36.5312614 C39.3205938,35.4631916 41.0280542,34.281693 42.1154,33.1688343 C43.9852377,31.2551236 44.0810401,29.5147514 44.1191253,28.7353404 C44.2211788,26.6468207 43.6417548,25.0819244 42.8332839,23.9415801 C41.4687383,22.0168948 39.446037,21.3181818 38.7329586,21.3181818 L38.7329586,21.3181818 L27.8589743,21.3181818 L28.9302702,16.8636364 L39.275268,16.8636364 C40.5439039,16.8636364 42.7670547,17.4915863 45.068264,19.8539477 C47.299805,22.1447894 48.2170034,25.2616261 48.3075709,25.5832496 L48.3075709,25.5832496 L48.6968412,26.9656263 L49.2502408,25.6403921 C49.4032439,25.2739932 49.4742643,25.0942445 49.5303446,24.9416 L49.5763182,24.8136784 C49.6751326,24.5337625 49.7882087,24.1891844 49.9032197,23.7904697 C50.0727453,23.2027659 50.2465333,22.4971921 50.3850935,21.7076626 C50.5922331,20.5273619 50.7203541,19.160116 50.6396304,17.718458 C50.5175742,15.5386373 49.9185575,13.1919996 48.4073509,11.0561949 C44.1346031,5.01747417 38.5054669,5.30165628 36.7528741,5.39460953 L36.7528741,5.39460953 L32.6579657,5.40717501 L33.7473359,0.5 Z" id="Oval" fill="#004C92"></path>
                </g>
            </g>
        </g>
    </g>
</svg>