<?xml version="1.0" encoding="UTF-8"?>
<svg width="93px" height="110px" viewBox="0 0 93 110" version="1.1" xmlns="http://www.w3.org/2000/svg" xmlns:xlink="http://www.w3.org/1999/xlink">
    <title>编组 13</title>
    <defs>
        <rect id="path-1" x="0" y="0" width="93" height="110"></rect>
    </defs>
    <g id="页面-1" stroke="none" stroke-width="1" fill="none" fill-rule="evenodd">
        <g id="温度样式" transform="translate(-306.000000, -725.000000)">
            <g id="编组" transform="translate(306.000000, 725.000000)">
                <mask id="mask-2" fill="white">
                    <use xlink:href="#path-1"></use>
                </mask>
                <use id="蒙版" fill-opacity="0.3" fill="#4B7382" xlink:href="#path-1"></use>
                <g mask="url(#mask-2)" fill="#FF7A40" fill-opacity="0.15" fill-rule="nonzero" id="形状">
                    <g transform="translate(16.000000, 28.000000)">
                        <path d="M39.9995121,76.8637906 C37.6733711,76.8637906 35.8023446,74.9421959 35.8023446,72.6666231 L35.8023446,4.19716752 C35.8023446,1.87102648 37.7239394,0 39.9995121,0 C42.2750849,0 44.1966796,1.92159477 44.1966796,4.19716752 L44.1966796,72.6666231 C44.1966796,74.9927642 42.3256531,76.8637906 39.9995121,76.8637906 Z M22.0983398,64.4745612 C19.7721988,64.4745612 17.9011723,62.5529665 17.9011723,60.2773937 L17.9011723,17.6988992 C17.9011723,15.3727581 19.8227671,13.5017316 22.0983398,13.5017316 C24.3739126,13.5017316 26.2955073,15.4233264 26.2955073,17.6988992 L26.2955073,60.2773937 C26.2955073,62.5529665 24.4244808,64.4745612 22.0983398,64.4745612 Z M4.19716752,53.2989706 C1.87102648,53.2989706 0,51.3773758 0,49.1018031 L0,29.8858554 C0,27.5597144 1.92159477,25.6886879 4.19716752,25.6886879 C6.47274026,25.6886879 8.39433503,27.6102827 8.39433503,29.8858554 L8.39433503,49.0512348 C8.59660816,51.3773758 6.72558168,53.2989706 4.19716752,53.2989706 Z M75.8018567,53.2989706 C73.4757157,53.2989706 71.6046892,51.3773758 71.6046892,49.1018031 L71.6046892,29.8858554 C71.6046892,27.5597144 73.5262839,25.6886879 75.8018567,25.6886879 C78.1279977,25.6886879 79.9990242,27.6102827 79.9990242,29.8858554 L79.9990242,49.0512348 C80.0495925,51.3773758 78.1279977,53.2989706 75.8018567,53.2989706 Z M58.1029575,64.2217198 C55.7768165,64.2217198 53.90579,62.300125 53.90579,60.0245523 L53.90579,17.4460577 C53.90579,15.1199167 55.8273848,13.2488902 58.1029575,13.2488902 C60.4290986,13.2488902 62.300125,15.170485 62.300125,17.4460577 L62.300125,60.0245523 C62.3506933,62.3506933 60.4290986,64.2217198 58.1029575,64.2217198 Z"></path>
                    </g>
                </g>
            </g>
        </g>
    </g>
</svg>