<?xml version="1.0" encoding="UTF-8"?>
<svg width="93px" height="110px" viewBox="0 0 93 110" version="1.1" xmlns="http://www.w3.org/2000/svg" xmlns:xlink="http://www.w3.org/1999/xlink">
    <title>编组 13</title>
    <defs>
        <rect id="path-1" x="0" y="0" width="93" height="110"></rect>
    </defs>
    <g id="页面-1" stroke="none" stroke-width="1" fill="none" fill-rule="evenodd">
        <g id="温度样式" transform="translate(-76.000000, -565.000000)">
            <g id="编组-13" transform="translate(76.000000, 565.000000)">
                <mask id="mask-2" fill="white">
                    <use xlink:href="#path-1"></use>
                </mask>
                <use id="矩形" fill-opacity="0.3" fill="#4B7382" xlink:href="#path-1"></use>
                <g id="编组" mask="url(#mask-2)" fill="#00B0A1" fill-opacity="0.15" fill-rule="nonzero">
                    <g transform="translate(18.000000, 25.000000)" id="形状">
                        <path d="M36.9996042,50.6138614 C36.8939936,51.1947194 36.7619804,51.6435643 36.6035646,51.9603961 C36.4451487,52.2772278 36.0755118,52.6204621 35.4946537,52.990099 C34.1217164,53.8349835 32.6431685,54.5214522 31.0590101,55.049505 C29.4748517,55.5775578 27.9566998,56.1584159 26.5045546,56.7920792 C25.0524094,57.4257425 23.7850827,58.2574257 22.7025744,59.2871287 C21.6200661,60.3168318 20.9467988,61.7821783 20.6827724,63.6831684 C20.5771618,64.2640264 20.5111552,64.8316832 20.4847526,65.3861387 C20.45835,65.9405942 20.4187461,66.4554457 20.3659408,66.9306932 C20.3131355,67.0363037 20.2603302,67.128713 20.2075249,67.2079209 C20.1547196,67.2871288 20.1019143,67.379538 20.049109,67.4851486 C17.9897031,67.3267328 15.9038945,67.1419143 13.7916832,66.9306932 C11.679472,66.719472 9.73887791,66.4818483 7.96990103,66.2178219 C6.20092415,65.9537955 4.70917497,65.6897691 3.49465351,65.4257427 C2.28013205,65.1617162 1.51445548,64.8976898 1.19762382,64.6336635 C0.722376314,64.2640265 0.365940661,63.1551156 0.128316858,61.3069308 C-0.109306945,59.458746 -0.0168976997,57.0561057 0.405544594,54.09901 C0.669571001,52.4620463 1.34283832,51.2079209 2.42534655,50.3366337 C3.50785479,49.4653466 4.78838284,48.7788779 6.26693071,48.2772278 C7.74547858,47.7755776 9.26363041,47.3135314 10.8213862,46.8910892 C12.379142,46.4686469 13.7652806,45.8877889 14.9798021,45.1485149 C15.9302971,44.5148516 16.6563697,43.9339935 17.1580199,43.4059407 C17.6596701,42.877888 18.0161057,42.3366338 18.2273269,41.7821784 C18.438548,41.2277229 18.5441586,40.6600661 18.5441586,40.079208 C18.5441586,39.49835 18.5177559,38.8646866 18.4649507,38.178218 C18.3593401,37.1221123 18.0029045,36.2904292 17.3956437,35.6831684 C16.788383,35.0759077 16.1151157,34.4554456 15.3758418,33.8217822 C14.9533995,33.5577558 14.5969639,33.1353136 14.3065348,32.5544555 C14.0161057,31.9735974 13.7652807,31.3927394 13.5540596,30.8118813 C13.3428384,30.1782179 13.1316173,29.4653466 12.9203962,28.6732675 C12.6035645,28.5676569 12.2867328,28.409241 11.9699011,28.19802 C11.7058747,27.9867988 11.428647,27.6699671 11.1382179,27.2475249 C10.8477889,26.8250826 10.5705611,26.2442246 10.3065347,25.5049506 C10.0425083,24.7656767 9.93689773,24.0660068 9.98970299,23.4059407 C10.0425083,22.7458747 10.1745215,22.1782179 10.3857426,21.7029704 C10.5969637,21.1221123 10.8873928,20.6468648 11.2570297,20.2772278 C11.2042245,18.5874588 11.2834324,16.8712872 11.4946535,15.1287129 C11.7058746,13.7029704 12.0491089,12.1716173 12.5243564,10.5346536 C12.9996039,8.89768985 13.7124752,7.41914198 14.6629703,6.09900995 C15.5078548,4.83168322 16.4583498,3.80198025 17.5144554,3.00990103 C18.5705611,2.21782181 19.639868,1.59735975 20.7223762,1.14851485 C21.8048845,0.699669951 22.9005941,0.396039585 24.009505,0.237623751 C25.1184159,0.079207917 26.2009242,0 27.2570298,0 C29.8972938,0 32.2735314,0.554455445 34.3857427,1.66336633 C36.497954,2.77227722 38.0821124,3.96039603 39.1382179,5.22772275 C39.8246866,6.12541255 40.2603302,6.95709573 40.4451487,7.7227723 C40.6299671,8.48844886 40.8807922,9.3729373 41.1976239,10.3762376 C40.1943236,10.9570957 39.1250166,11.8151815 37.9897031,12.9504951 C36.8543896,14.0858086 35.8642905,15.2343234 35.0194061,16.3960396 C33.9633004,17.8745875 33.1712212,19.5115512 32.6431684,21.3069307 C32.1151156,23.1023102 31.719076,24.7656766 31.4550496,26.2970297 C31.1910232,28.1452146 31.0590099,29.9933994 31.0590099,31.8415842 C30.6365677,32.3168317 30.319736,32.8448845 30.1085149,33.4257426 C29.8972937,33.9537954 29.7652805,34.5742575 29.7124753,35.2871288 C29.65967,36 29.7652806,36.778878 30.029307,37.6237625 C30.2933334,38.5214523 30.5837624,39.2079209 30.9005941,39.6831684 C31.2174258,40.1584159 31.5078548,40.5280529 31.7718812,40.7920793 C32.0887129,41.108911 32.4055446,41.3201321 32.7223763,41.4257427 C32.9335974,42.2706271 33.1448185,43.0627064 33.3560396,43.8019803 C33.5672608,44.4356437 33.8180859,45.0825084 34.1085149,45.7425744 C34.3989439,46.4026404 34.7553795,46.8910892 35.1778218,47.207921 C35.5474588,47.5247526 35.8378879,47.788779 36.049109,48 C36.26033,48.2112213 36.4319472,48.4092411 36.5639604,48.5940596 C36.6959737,48.778878 36.7751816,49.0297031 36.8015842,49.3465348 C36.8279868,49.6633665 36.8939934,50.0858088 36.999604,50.6138615 L36.9996042,50.6138614 Z M79.2174262,65.1881188 C79.4286473,65.9273928 79.6002645,66.8250825 79.7322776,67.8811882 C79.8642908,68.9372938 79.9302974,70.0066007 79.9302974,71.0891089 C79.9302974,72.1716172 79.8510895,73.1881188 79.6926737,74.1386139 C79.5342578,75.0891089 79.2966341,75.8019802 78.9798024,76.2772275 C78.7685813,76.5940594 78.1481192,76.9108911 77.1184162,77.2277228 C76.0887132,77.5445545 74.8081852,77.8349836 73.2768321,78.0990099 C71.7454789,78.3630363 70.0557099,78.6138613 68.2075251,78.8514852 C66.3593402,79.089109 64.4979541,79.2871287 62.6233666,79.4455445 C60.7487792,79.6039603 58.9401983,79.7359735 57.197624,79.8415841 C55.4550498,79.9471948 53.9236966,80 52.6035646,80 C51.2834327,80 49.7652808,79.9471947 48.0491092,79.8415841 C46.3329375,79.7359736 44.5507592,79.6039604 42.7025744,79.4455445 C40.8543896,79.2871286 39.0326075,79.1155115 37.2372279,78.930693 C35.4418483,78.7458746 33.7916832,78.5346535 32.2867328,78.2970297 C30.7817823,78.0594059 29.5144555,77.8217821 28.4847525,77.5841584 C27.4550495,77.3465347 26.8081848,77.1221123 26.5441584,76.9108911 C26.1217162,76.5412541 25.7784819,75.4323432 25.5144555,73.5841584 C25.2504291,71.7359736 25.329637,69.359736 25.7520792,66.4554455 C26.0161056,64.7656765 26.689373,63.4983498 27.7718812,62.6534652 C28.8543894,61.8085807 30.1349175,61.1221121 31.6134653,60.5940593 C33.0920132,60.0660065 34.610165,59.6039603 36.1679208,59.2079207 C37.7256766,58.8118811 39.1118152,58.2178217 40.3263367,57.4257425 C41.2768318,56.7920791 42.0029044,56.211221 42.5045545,55.6831683 C43.0062047,55.1551155 43.3758416,54.6270627 43.6134654,54.0990098 C43.8510891,53.570957 43.969901,53.0165015 43.969901,52.4356435 C43.969901,51.8547855 43.9434984,51.1947194 43.8906931,50.4554454 C43.7850825,49.3993398 43.4154456,48.5676566 42.7817823,47.9603959 C42.1481189,47.3531352 41.4616503,46.7590758 40.7223763,46.1782177 C40.3527393,45.861386 40.0227063,45.4125411 39.7322773,44.831683 C39.4418483,44.2508249 39.1910232,43.6699668 38.9798021,43.0891088 C38.7685809,42.4554454 38.5573598,41.7425741 38.3461387,40.9504949 C38.0293071,40.8448844 37.7124754,40.6864685 37.3956436,40.4752474 C37.1316172,40.2640263 36.8543895,39.9471946 36.5639604,39.5247523 C36.2735314,39.1023101 35.9963036,38.521452 35.7322772,37.7821781 C35.4682508,37.0429042 35.3626403,36.3432342 35.4154455,35.6831682 C35.4682508,35.0231021 35.600264,34.481848 35.8114851,34.0594058 C36.0227063,33.531353 36.3131353,33.0561055 36.6827722,32.6336633 C36.629967,30.9438943 36.7091749,29.2277227 36.920396,27.4851484 C37.1316171,26.0066005 37.4616501,24.4620461 37.910495,22.851485 C38.3593398,21.240924 39.0590098,19.7491748 40.0095049,18.3762375 C40.8543894,17.1089108 41.8048844,16.0792078 42.8609901,15.2871286 C43.9170957,14.4950494 44.999604,13.8745873 46.1085149,13.4257424 C47.2174257,12.9768975 48.3263366,12.6732671 49.4352475,12.5148513 C50.5441584,12.3564355 51.600264,12.2772275 52.6035643,12.2772275 C55.2966337,12.2772275 57.6992739,12.831683 59.8114851,13.9405939 C61.9236963,15.0495048 63.4814521,16.2376236 64.4847525,17.5049503 C65.6464687,18.9306929 66.5045545,20.5280526 67.0590099,22.2970295 C67.6134654,24.0660065 68.0227063,25.7161715 68.2867327,27.2475246 C68.5507591,29.0429042 68.6563697,30.8382837 68.6035644,32.6336633 C68.8675908,32.8448844 69.1052145,33.1353134 69.3164356,33.5049504 C69.4748515,33.821782 69.620066,34.2310229 69.7520792,34.7326731 C69.8840925,35.2343233 69.8972938,35.8547853 69.7916832,36.5940593 C69.6860727,37.5445543 69.4748515,38.3102309 69.1580199,38.891089 C68.8411882,39.4719471 68.5243565,39.920792 68.2075248,40.2376237 C67.8378878,40.6072607 67.4154456,40.8448844 66.9401981,40.9504949 C66.7289769,41.7425741 66.5177558,42.4554454 66.3065347,43.0891088 C66.0953135,43.6699668 65.8312871,44.2508249 65.5144555,44.831683 C65.1976238,45.4125411 64.8543895,45.8349833 64.4847525,46.0990097 C64.0623103,46.4686467 63.679472,46.7854784 63.3362377,47.0495048 C62.9930033,47.3135312 62.689373,47.5907589 62.4253466,47.881188 C62.1613201,48.1716171 61.9368977,48.5016501 61.7520792,48.871287 C61.5672607,49.2409239 61.4220462,49.6897688 61.3164356,50.2178217 C61.210825,50.9042903 61.1712211,51.6039603 61.1976237,52.3168316 C61.2240264,53.0297029 61.3956436,53.7293729 61.7124752,54.4158415 C62.0293069,55.1023102 62.5441584,55.7623762 63.2570297,56.3960396 C63.969901,57.029703 64.96,57.5841584 66.2273267,58.0594059 C67.3362376,58.5346534 68.5639604,58.9438943 69.910495,59.2871287 C71.2570297,59.630363 72.550759,60.0396039 73.7916832,60.5148514 C75.0326073,60.9900989 76.1415182,61.5973596 77.1184158,62.3366336 C78.0953135,63.0759076 78.7949835,64.0264026 79.2174258,65.1881188 L79.2174262,65.1881188 Z"></path>
                    </g>
                </g>
            </g>
        </g>
    </g>
</svg>