<?xml version="1.0" encoding="UTF-8"?>
<svg width="32px" height="32px" viewBox="0 0 32 32" version="1.1" xmlns="http://www.w3.org/2000/svg" xmlns:xlink="http://www.w3.org/1999/xlink">
    <title>编组 35备份 5</title>
    <defs>
        <linearGradient x1="50%" y1="0%" x2="50%" y2="100%" id="linearGradient-1">
            <stop stop-color="#23C7AB" offset="0%"></stop>
            <stop stop-color="#78FFE8" offset="100%"></stop>
        </linearGradient>
        <rect id="path-2" x="0" y="0" width="28" height="28" rx="5"></rect>
        <filter x="-32.1%" y="-32.1%" width="164.3%" height="164.3%" filterUnits="objectBoundingBox" id="filter-3">
            <feGaussianBlur stdDeviation="3" in="SourceAlpha" result="shadowBlurInner1"></feGaussianBlur>
            <feOffset dx="0" dy="2" in="shadowBlurInner1" result="shadowOffsetInner1"></feOffset>
            <feComposite in="shadowOffsetInner1" in2="SourceAlpha" operator="arithmetic" k2="-1" k3="1" result="shadowInnerInner1"></feComposite>
            <feColorMatrix values="0 0 0 0 0.491786157   0 0 0 0 1   0 0 0 0 0.924529036  0 0 0 0.5 0" type="matrix" in="shadowInnerInner1" result="shadowMatrixInner1"></feColorMatrix>
            <feGaussianBlur stdDeviation="4.5" in="SourceAlpha" result="shadowBlurInner2"></feGaussianBlur>
            <feOffset dx="0" dy="-9" in="shadowBlurInner2" result="shadowOffsetInner2"></feOffset>
            <feComposite in="shadowOffsetInner2" in2="SourceAlpha" operator="arithmetic" k2="-1" k3="1" result="shadowInnerInner2"></feComposite>
            <feColorMatrix values="0 0 0 0 0.585396818   0 0 0 0 1   0 0 0 0 0.965244225  0 0 0 0.5 0" type="matrix" in="shadowInnerInner2" result="shadowMatrixInner2"></feColorMatrix>
            <feMerge>
                <feMergeNode in="shadowMatrixInner1"></feMergeNode>
                <feMergeNode in="shadowMatrixInner2"></feMergeNode>
            </feMerge>
        </filter>
        <path d="M3.78874698,10.4213203 C3.18398343,10.6440329 2.1622368,11.2985907 2.1622368,12.3333895 C2.1622368,12.9879473 2.44943045,13.4089284 2.67863307,13.7484294 C2.85536762,14.0091661 2.95478081,14.1639785 2.95478081,14.362247 C2.95478081,14.7587841 2.52122886,14.9461886 2.50742147,14.9516206 C2.37127271,15.0049307 2.26236213,15.1094427 2.20482435,15.2419968 C2.14728657,15.3745508 2.14587322,15.5242002 2.20089748,15.6577826 C2.28464055,15.8645908 2.48819946,16.000215 2.71453227,15.9999997 C2.78356921,15.9999997 2.85260614,15.9864195 2.9188816,15.9619754 C3.34138764,15.7962989 4.05937176,15.2721095 4.05937176,14.364963 C4.05937176,13.8271936 3.80255437,13.4496686 3.59544356,13.1481917 C3.41042458,12.876591 3.26406628,12.6620264 3.26406628,12.3361055 C3.26406628,11.8852483 3.94062824,11.5294513 4.17811529,11.4398231 C4.46252824,11.3340491 4.60593524,11.02156 4.49844667,10.7418092 C4.44801553,10.6063951 4.34470387,10.4963873 4.21145159,10.4362128 C4.07819932,10.3760382 3.92603533,10.3706773 3.78874698,10.4213203 L3.78874698,10.4213203 Z M8.70969969,10.4213203 C8.10493614,10.6440329 7.08042803,11.2985907 7.08042803,12.3333895 C7.08042803,12.9879473 7.36762168,13.4089284 7.5968243,13.7484294 C7.77355885,14.0091661 7.87297204,14.1639785 7.87297204,14.362247 C7.87297204,14.7587841 7.43942009,14.9461886 7.4256127,14.9516206 C7.28946395,15.0049307 7.18055336,15.1094427 7.12301558,15.2419968 C7.0654778,15.3745508 7.06406445,15.5242002 7.11908871,15.6577826 C7.20283179,15.8645908 7.40639069,16.000215 7.63272351,15.9999997 C7.70176044,15.9999997 7.77079738,15.9864195 7.83707283,15.9619754 C8.25957887,15.7962989 8.977563,15.2721095 8.977563,14.364963 C8.977563,13.8271936 8.7207456,13.4496686 8.51363479,13.1481917 C8.32861581,12.876591 8.18225751,12.6620264 8.18225751,12.3361055 C8.18225751,11.8852483 8.85605799,11.5294513 9.09354505,11.4398231 C9.37759436,11.3336152 9.52171653,11.0222518 9.4166379,10.7418092 C9.36736125,10.6061711 9.26464101,10.4957545 9.13164165,10.4354595 C8.99864229,10.3751645 8.84656317,10.3700684 8.70969969,10.4213203 L8.70969969,10.4213203 Z M13.6334139,10.4213203 C13.0286503,10.6440329 12.0069037,11.2985907 12.0069037,12.3333895 C12.0069037,12.9879473 12.2940973,13.4089284 12.5233,13.7484294 C12.7000345,14.0091661 12.7994477,14.1639785 12.7994477,14.362247 C12.7994477,14.7587841 12.3658958,14.9461886 12.3520884,14.9516206 C12.2159396,15.0049307 12.107029,15.1094427 12.0494912,15.2419968 C11.9919535,15.3745508 11.9905401,15.5242002 12.0455644,15.6577826 C12.1293075,15.8645908 12.3328664,16.000215 12.5591992,15.9999997 C12.6282361,15.9999997 12.697273,15.9864195 12.7635485,15.9619754 C13.1860545,15.7962989 13.9040387,15.2721095 13.9040387,14.364963 C13.9040387,13.8271936 13.6472213,13.4496686 13.4401105,13.1481917 C13.2550915,12.876591 13.1087332,12.6620264 13.1087332,12.3361055 C13.1087332,11.8852483 13.7852951,11.5294513 14.0227822,11.4398231 C14.3071951,11.3340491 14.4506021,11.02156 14.3431136,10.7418092 C14.2926824,10.6063951 14.1893708,10.4963873 14.0561185,10.4362128 C13.9228662,10.3760382 13.7707022,10.3706773 13.6334139,10.4213203 L13.6334139,10.4213203 Z M14.9119779,0 L1.08526061,0 C0.485887727,0 0,0.477887184 0,1.0673909 L0,6.13274467 C0,6.72224839 0.485887727,7.20013557 1.08526061,7.20013557 L1.61822575,7.20013557 L1.61822575,7.73247302 C1.61822575,8.62060743 2.35277874,9.34306539 3.25578184,9.34306539 L12.7442182,9.34306539 C13.6472213,9.34306539 14.3817742,8.62060743 14.3817742,7.73247302 L14.3817742,7.20013557 L14.9147394,7.20013557 C15.5141123,7.20013557 16,6.72224839 16,6.13274467 L16,1.06467489 C15.9965087,0.475979827 15.5105386,0.000437896978 14.9119779,0 Z M13.2744218,7.72975701 C13.2744218,8.01765379 13.0369348,8.25394643 12.7414567,8.25394643 L3.25578184,8.25394643 C2.96306524,8.25394643 2.72281671,8.0203698 2.72281671,7.72975701 L2.72281671,7.19741956 L13.2744218,7.19741956 L13.2744218,7.72975701 Z M14.6413531,2.39823452 L11.9295823,2.39823452 L11.9295823,1.06467489 L14.6413531,1.06467489 L14.6413531,2.39823452 Z" id="path-4"></path>
        <filter x="-75.0%" y="-75.0%" width="250.0%" height="250.0%" filterUnits="objectBoundingBox" id="filter-5">
            <feOffset dx="0" dy="0" in="SourceAlpha" result="shadowOffsetOuter1"></feOffset>
            <feGaussianBlur stdDeviation="4" in="shadowOffsetOuter1" result="shadowBlurOuter1"></feGaussianBlur>
            <feColorMatrix values="0 0 0 0 0.501280845   0 0 0 0 1   0 0 0 0 0.963728154  0 0 0 0.5 0" type="matrix" in="shadowBlurOuter1"></feColorMatrix>
        </filter>
    </defs>
    <g id="页面-1" stroke="none" stroke-width="1" fill="none" fill-rule="evenodd">
        <g id="H栋数据模式总览-修改" transform="translate(-183.000000, -862.000000)">
            <g id="编组-16备份-8" transform="translate(10.000000, 695.000000)">
                <g id="编组-35备份-5" transform="translate(175.000000, 169.000000)">
                    <g id="矩形">
                        <use fill-opacity="0.6" fill="#0F3331" fill-rule="evenodd" xlink:href="#path-2"></use>
                        <use fill="black" fill-opacity="1" filter="url(#filter-3)" xlink:href="#path-2"></use>
                        <rect stroke="url(#linearGradient-1)" stroke-width="1" stroke-linejoin="square" x="0.5" y="0.5" width="27" height="27" rx="5"></rect>
                    </g>
                    <g id="编组备份-12" transform="translate(6.000000, 6.000000)" fill-rule="nonzero">
                        <g id="形状">
                            <use fill="black" fill-opacity="1" filter="url(#filter-5)" xlink:href="#path-4"></use>
                            <use fill="#FFFFFF" xlink:href="#path-4"></use>
                        </g>
                    </g>
                </g>
            </g>
        </g>
    </g>
</svg>