<?xml version="1.0" encoding="UTF-8"?>
<svg width="93px" height="110px" viewBox="0 0 93 110" version="1.1" xmlns="http://www.w3.org/2000/svg" xmlns:xlink="http://www.w3.org/1999/xlink">
    <title>编组 13</title>
    <defs>
        <rect id="path-1" x="0" y="0" width="93" height="110"></rect>
    </defs>
    <g id="页面-1" stroke="none" stroke-width="1" fill="none" fill-rule="evenodd">
        <g id="温度样式" transform="translate(-191.000000, -885.000000)">
            <g id="ic_filter_vintage" transform="translate(191.000000, 885.000000)">
                <mask id="mask-2" fill="white">
                    <use xlink:href="#path-1"></use>
                </mask>
                <use id="蒙版" fill-opacity="0.3" fill="#4B7382" xlink:href="#path-1"></use>
                <g id="编组" mask="url(#mask-2)" fill="#00C0FF" opacity="0.152797154">
                    <g transform="translate(16.000000, 17.000000)" id="形状结合">
                        <path d="M37.1569317,73.1878958 C38.1703026,72.174525 39.8029557,72.624912 40.0844476,74.0323716 C40.8726249,76.9598874 41.7171006,81.1259676 41.0978184,83.6030964 C40.4222379,86.4743139 37.7199156,88.2195637 35.1864884,87.4876847 C32.6530612,86.7558058 31.1330049,83.7719916 31.8648839,80.9007741 C32.4841661,78.4236453 35.13019,75.3272343 37.1569317,73.1878958 Z M57.424349,61.4778325 C58.6066151,60.2955665 60.5770584,60.8585503 60.9711471,62.5475018 C61.8719212,66.0380014 62.885292,71.0485574 62.1534131,74.0323716 C61.3089374,77.5228712 58.0999296,79.6059113 55.059817,78.7051372 C52.0197044,77.8043631 50.2181562,74.2575651 51.0626319,70.7670654 C51.8508093,67.7832512 55.0035186,64.0112597 57.424349,61.4778325 Z M18.296974,61.3652357 C19.47924,60.1266714 21.4496833,60.6896552 21.843772,62.434905 C22.7445461,65.9254046 23.757917,70.9359606 23.026038,73.9197748 C22.1815623,77.4102745 18.9725545,79.4933146 15.9324419,78.5925405 C12.8923293,77.6917664 11.0907811,74.1449683 11.9352569,70.6544687 C12.7234342,67.6706545 15.8761436,63.8986629 18.296974,61.3652357 Z M39.8029557,46.5024631 C41.0978184,45.1513019 43.2371569,45.7705841 43.7438424,47.6847291 C44.8135116,51.5693174 45.9394792,57.0865588 45.0950035,60.4081633 C44.137931,64.2364532 40.591133,66.6009852 37.2132301,65.5876144 C33.8353272,64.5742435 31.8085855,60.6333568 32.765658,56.8050669 C33.6101337,53.4834624 37.1006334,49.3173821 39.8029557,46.5024631 Z M35.0738916,0 C47.234342,0 56.7487685,10.6403941 56.7487685,23.1949331 C56.7487685,23.4764251 56.6924701,23.757917 56.6924701,24.0957072 C58.9444053,22.6882477 61.5904293,21.6185785 64.4616467,21.6185785 C73.0190007,21.6185785 79.9437016,29.0499648 80,38.0014075 C80,46.3335679 73.807178,53.3145672 66.0380014,54.1027445 L66.0380014,54.1027445 L51.9071077,54.1027445 C51.6256158,51.7382125 51.0626319,49.0358902 50.2744546,45.9957776 C49.2047854,41.9422942 45.5453906,39.0710767 41.4356087,39.0710767 C38.9584799,39.0710767 36.6502463,40.0844476 34.9049965,41.8859958 C30.4574243,46.5024631 27.6988037,50.5559465 26.5165376,54.1027445 L26.5165376,54.1027445 L14.9190711,54.1027445 C6.19282196,52.8078818 0,44.8135116 0,35.3553835 C0,26.5165376 5.85503167,19.0851513 13.7368051,17.114708 C16.2702322,7.37508797 24.9964814,0 35.0738916,0 Z"></path>
                    </g>
                </g>
            </g>
        </g>
    </g>
</svg>