<?xml version="1.0" encoding="UTF-8"?>
<svg width="93px" height="110px" viewBox="0 0 93 110" version="1.1" xmlns="http://www.w3.org/2000/svg" xmlns:xlink="http://www.w3.org/1999/xlink">
    <title>编组 13</title>
    <defs>
        <rect id="path-1" x="0" y="0" width="93" height="110"></rect>
    </defs>
    <g id="页面-1" stroke="none" stroke-width="1" fill="none" fill-rule="evenodd">
        <g id="温度样式" transform="translate(-76.000000, -85.000000)">
            <g id="编组-13" transform="translate(76.000000, 85.000000)">
                <mask id="mask-2" fill="white">
                    <use xlink:href="#path-1"></use>
                </mask>
                <use id="矩形" fill-opacity="0.3" fill="#4B7382" xlink:href="#path-1"></use>
                <g id="ic_filter_vintage" opacity="0.100000001" mask="url(#mask-2)" fill="#00B0A1">
                    <g transform="translate(9.000000, 17.000000)" id="Shape">
                        <path d="M77.9166667,51.6666667 C76.75,51 75.5416667,50.4583333 74.3333333,50 C75.5416667,49.5416667 76.75,49 77.9166667,48.3333333 C85.9166667,43.7083333 90.375,35.3333333 90.4166667,26.7083333 C82.9583333,22.4166667 73.4583333,22.0833333 65.4166667,26.7083333 C64.25,27.375 63.1666667,28.1666667 62.1666667,28.9583333 C62.375,27.6666667 62.5,26.3333333 62.5,25 C62.5,15.75 57.4583333,7.70833333 50,3.375 C42.5416667,7.70833333 37.5,15.75 37.5,25 C37.5,26.3333333 37.625,27.6666667 37.8333333,28.9583333 C36.8333333,28.125 35.75,27.3333333 34.5833333,26.6666667 C26.5833333,22.0416667 17.0833333,22.375 9.58333333,26.6666667 C9.58333333,35.2916667 14.0416667,43.6666667 22.0833333,48.2916667 C23.25,48.9583333 24.4583333,49.5 25.6666667,49.9583333 C24.4583333,50.4166667 23.25,50.9583333 22.0833333,51.625 C14.0833333,56.25 9.625,64.625 9.58333333,73.25 C17.0416667,77.5416667 26.5416667,77.875 34.5833333,73.25 C35.75,72.5833333 36.8333333,71.7916667 37.8333333,71 C37.625,72.3333333 37.5,73.6666667 37.5,75 C37.5,84.25 42.5416667,92.2916667 50,96.625 C57.4583333,92.2916667 62.5,84.25 62.5,75 C62.5,73.6666667 62.375,72.3333333 62.1666667,71.0416667 C63.1666667,71.875 64.25,72.625 65.4166667,73.2916667 C73.4166667,77.9166667 82.9166667,77.5833333 90.4166667,73.2916667 C90.375,64.6666667 85.9166667,56.2916667 77.9166667,51.6666667 L77.9166667,51.6666667 Z M50,66.6666667 C40.7916667,66.6666667 33.3333333,59.2083333 33.3333333,50 C33.3333333,40.7916667 40.7916667,33.3333333 50,33.3333333 C59.2083333,33.3333333 66.6666667,40.7916667 66.6666667,50 C66.6666667,59.2083333 59.2083333,66.6666667 50,66.6666667 L50,66.6666667 Z"></path>
                    </g>
                </g>
            </g>
        </g>
    </g>
</svg>