<?xml version="1.0" encoding="UTF-8"?>
<svg width="93px" height="110px" viewBox="0 0 93 110" version="1.1" xmlns="http://www.w3.org/2000/svg" xmlns:xlink="http://www.w3.org/1999/xlink">
    <title>编组 13</title>
    <defs>
        <rect id="path-1" x="0" y="0" width="93" height="110"></rect>
    </defs>
    <g id="页面-1" stroke="none" stroke-width="1" fill="none" fill-rule="evenodd">
        <g id="温度样式" transform="translate(-306.000000, -85.000000)">
            <g id="编组" transform="translate(306.000000, 85.000000)">
                <mask id="mask-2" fill="white">
                    <use xlink:href="#path-1"></use>
                </mask>
                <use id="蒙版" fill-opacity="0.3" fill="#4B7382" xlink:href="#path-1"></use>
                <g mask="url(#mask-2)" fill="#4A6CFF" fill-opacity="0.15" fill-rule="nonzero" id="形状">
                    <g transform="translate(19.000000, 23.000000)">
                        <path d="M80.0225648,47.8315558 L71.3736961,45.499753 L74.3838416,43.7615 C76.164491,42.743986 77.0124193,40.5393724 76.1220946,38.6739302 C75.1469771,36.5541094 72.5607958,35.7485776 70.5681643,36.8932808 L60.6050068,42.6591932 L53.5672019,40.7089581 C51.5745704,40.1578047 50.8962278,37.6988126 52.3801023,36.2149381 L57.7220505,30.8729898 L68.9147041,30.8729898 C70.949732,30.8729898 72.7727778,29.3891153 72.9847599,27.3540874 C73.196742,25.0222846 71.3736961,23.0296531 69.0842897,23.0296531 L65.5653873,23.0296531 L71.7128675,16.8821729 C73.196742,15.3982984 73.4511205,12.8969099 72.0096424,11.3282426 C70.4833714,9.632386 67.8971901,9.58998958 66.3285228,11.1586569 L59.8842677,17.602912 L59.8842677,14.126406 C59.8842677,12.0913781 58.4003932,10.2683322 56.3653653,10.0563501 C54.0335625,9.84436807 52.040931,11.6674139 52.040931,13.9568203 L52.040931,25.4462487 L46.8261719,30.6610078 C45.3846938,32.1024859 42.8833053,31.4665397 42.3321519,29.4739082 L40.3819169,22.2241212 L45.9358472,12.5577386 C46.9957576,10.7346928 46.5717934,8.27570072 44.791144,7.13099752 C42.8833053,5.90150149 40.3819169,6.53744771 39.2372137,8.44528638 L37.4565642,11.4978283 L35.2943471,3.06094169 C34.7431937,1.11070661 32.835355,-0.288375085 30.8003271,0.0507962337 C28.4685243,0.432363968 27.0694426,2.72177037 27.6629924,4.92638394 L30.0371916,13.7024418 L26.9422533,11.9217924 C25.3311896,10.9890713 23.2113688,11.2434498 21.9818728,12.6425315 C20.2860162,14.5927665 20.8371696,17.4333263 22.9569904,18.6628224 L32.9201478,24.4287348 L34.8279865,31.5089361 C35.3791399,33.5015676 33.5560941,35.3246134 31.5634626,34.77346 L24.2712792,32.8232249 L18.632556,23.1568423 C17.6150421,21.3761929 15.4104285,20.5282646 13.5449862,21.4185893 C11.4251655,22.3937069 10.6196336,24.9798882 11.7643368,26.9301233 L13.5449862,29.9826651 L4.93851403,27.6932587 C2.73390045,27.0997089 0.444494051,28.541187 0.0629263174,30.8305934 C-0.318641417,32.8656213 1.08044027,34.77346 3.03067536,35.3246134 L11.6371476,37.6564162 L8.62700212,39.3946692 C6.80395628,40.4545796 5.95602799,42.7863824 6.93114553,44.6942211 C7.65188458,46.0509064 9.00856986,46.8140418 10.4076515,46.8140418 C11.0859942,46.8140418 11.7643368,46.6444562 12.3578866,46.3052849 L22.3210441,40.5393724 L29.4012454,42.4472111 C31.3938769,42.9983645 32.0722195,45.4573566 30.588345,46.9412311 L25.2463968,52.2831794 L14.0537432,52.2831794 C12.0187153,52.2831794 10.1956695,53.7670539 9.9836874,55.8020818 C9.77170532,58.1338846 11.5947512,60.1265161 13.8841576,60.1265161 L17.40306,60.1265161 L11.2555798,66.2739963 C9.64451608,67.88506 9.55972325,70.5984306 11.2555798,72.0823051 C12.0187153,72.7606477 12.9514364,73.0998191 13.8841576,73.0998191 C14.9016715,73.0998191 15.8767891,72.7182513 16.6399245,71.9551159 L23.0841796,65.5108608 L23.0841796,68.9873668 C23.0841796,71.0223947 24.5680541,72.8454406 26.603082,73.0574226 C28.9348848,73.2694047 30.9275163,71.4463589 30.9275163,69.1569525 L30.9275163,57.667524 L36.1422754,52.452765 C37.5837535,51.0112869 40.085142,51.6472331 40.6362954,53.6398646 L42.5865304,60.932048 L36.9902037,70.640827 C35.9726897,72.4214764 36.3542575,74.7108828 38.0077176,75.8979824 C38.7284567,76.4067394 39.4915922,76.6611179 40.297124,76.6611179 C41.6538093,76.6611179 42.9680982,75.9403789 43.6888372,74.7108828 L45.4694866,71.658341 L47.7588931,80.2648132 C48.2252536,82.0030662 49.793921,83.1901658 51.532174,83.1901658 C51.9985345,83.1901658 52.5072915,83.105373 52.9736521,82.9357873 C54.8814908,82.2150483 55.8142119,80.0528311 55.2630585,78.102596 L52.9736521,69.4961238 L56.0685904,71.2767732 C57.6796541,72.2094944 59.7994749,71.9551159 61.0289709,70.5560342 C62.7248275,68.6057991 62.1736741,65.7652393 60.0538534,64.5357433 L50.0906959,58.7698308 L48.1828572,51.6896296 C47.6317038,49.6969981 49.4547496,47.8739522 51.4473811,48.4251056 L58.7395645,50.3753407 L64.4206841,60.2113089 C65.1414232,61.4832014 66.455712,62.161544 67.8123973,62.161544 C68.6179292,62.161544 69.4234611,61.9071655 70.1018037,61.3984086 C71.7552639,60.2113089 72.1368316,57.8795061 71.1193176,56.1412531 L69.4234611,53.2159005 L78.0299333,55.5053069 C78.3691046,55.5900997 78.7082759,55.6324961 79.0474472,55.6324961 C80.9552859,55.6324961 82.6935389,54.191018 82.9479174,52.1135937 C83.2870887,50.1209622 81.9304034,48.3403128 80.0225648,47.8315558 L80.0225648,47.8315558 Z M46.1054329,41.51449 C46.1054329,44.0158785 44.070405,46.0509064 41.5690165,46.0509064 C39.067628,46.0509064 37.0326001,44.0158785 37.0326001,41.51449 C37.0326001,39.0131015 39.067628,36.9780736 41.5690165,36.9780736 C44.070405,36.9780736 46.1054329,39.0131015 46.1054329,41.51449 Z"></path>
                    </g>
                </g>
            </g>
        </g>
    </g>
</svg>