<?xml version="1.0" encoding="UTF-8"?>
<svg width="93px" height="110px" viewBox="0 0 93 110" version="1.1" xmlns="http://www.w3.org/2000/svg" xmlns:xlink="http://www.w3.org/1999/xlink">
    <title>编组 13</title>
    <defs>
        <rect id="path-1" x="0" y="0" width="93" height="110"></rect>
    </defs>
    <g id="页面-1" stroke="none" stroke-width="1" fill="none" fill-rule="evenodd">
        <g id="温度样式" transform="translate(-536.000000, -85.000000)">
            <g id="编组" transform="translate(536.000000, 85.000000)">
                <mask id="mask-2" fill="white">
                    <use xlink:href="#path-1"></use>
                </mask>
                <use id="蒙版" fill-opacity="0.3" fill="#4B7382" xlink:href="#path-1"></use>
                <g mask="url(#mask-2)" fill="#FF7A40" fill-opacity="0.15" fill-rule="nonzero" id="路径">
                    <g transform="translate(26.000000, 24.000000)">
                        <path d="M19.2364163,82 C13.9748223,70.6327531 16.7764731,64.1069127 20.8080955,57.9672252 C25.2156205,51.2636839 26.3772825,44.597781 26.3772825,44.597781 C26.3772825,44.597781 29.8349609,49.3025684 28.4682903,56.6518067 C34.58067,49.5211908 35.7457755,38.2222535 34.8267604,33.8626173 C48.6914285,43.9554473 54.6056867,65.8084041 46.6039444,82 C89.0731594,56.9763769 57.1682943,19.5364395 51.6264951,15.2998085 C53.468049,19.5365196 53.8096767,26.6773058 50.0889306,30.1316208 C43.7680988,5.13866891 28.1197756,0 28.1197756,0 C29.9579661,12.9013679 21.3889266,26.9848187 13.1513443,37.5389982 C12.8438314,32.4105797 12.5363185,28.84351 9.93967627,23.9235437 C9.36228874,33.2612854 2.49129709,40.8975357 0.649743196,50.231914 C-1.84439474,62.9281933 2.52893539,72.1976255 19.2364163,82 Z"></path>
                    </g>
                </g>
            </g>
        </g>
    </g>
</svg>