<?xml version="1.0" encoding="UTF-8"?>
<svg width="24px" height="24px" viewBox="0 0 24 24" version="1.1" xmlns="http://www.w3.org/2000/svg" xmlns:xlink="http://www.w3.org/1999/xlink">
    <title>tools_return_view</title>
    <defs>
        <linearGradient x1="50%" y1="0%" x2="50%" y2="100%" id="linearGradient-1">
            <stop stop-color="#FFFFFF" stop-opacity="0.2" offset="0%"></stop>
            <stop stop-color="#FFFFFF" stop-opacity="0.8" offset="100%"></stop>
        </linearGradient>
        <linearGradient x1="50%" y1="0%" x2="50%" y2="100%" id="linearGradient-2">
            <stop stop-color="#FFFFFF" offset="0%"></stop>
            <stop stop-color="#FFFFFF" stop-opacity="0.5" offset="100%"></stop>
        </linearGradient>
    </defs>
    <g id="界面展示" stroke="none" stroke-width="1" fill="none" fill-rule="evenodd">
        <g id="BIM运维-首页-综合态势备份" transform="translate(-1548.000000, -733.000000)">
            <g id="编组" transform="translate(1230.000000, 725.000000)">
                <g id="编组-34备份" transform="translate(310.000000, 0.000000)">
                    <g id="编组-30" transform="translate(8.000000, 8.000000)">
                        <ellipse id="椭圆形" fill="url(#linearGradient-1)" cx="12" cy="20.5" rx="12" ry="3.5"></ellipse>
                        <path d="M19,7.11297072 C19,7.25244073 18.9966427,7.38493724 18.989928,7.51046025 C18.9832134,7.63598326 18.9731415,7.76847977 18.9597122,7.90794978 C18.8388489,9.0655509 18.593765,10.1778243 18.2244604,11.2447699 C17.8551559,12.3117155 17.3884892,13.3368201 16.8244604,14.3200837 C16.2604317,15.3033473 15.6091127,16.2482566 14.8705036,17.1548117 C14.1318945,18.0613668 13.3328537,18.9330544 12.4733813,19.7698745 C12.352518,19.9232915 12.1980815,20 12.0100719,20 C11.8086331,20 11.647482,19.9232915 11.5266187,19.7698745 C10.6671463,18.9330544 9.86474821,18.0543933 9.11942446,17.1338912 C8.37410072,16.2133891 7.71606715,15.251046 7.14532376,14.2468619 C6.57458036,13.2426778 6.10455638,12.2001395 5.73525181,11.1192469 C5.36594724,10.0383542 5.12757794,8.91213388 5.0201439,7.74058577 C5.0201439,7.62900976 5.01678659,7.52440725 5.01007195,7.42677825 C5.00335732,7.32914924 5,7.22454673 5,7.11297072 C5,6.13668062 5.18465228,5.21617853 5.55395683,4.35146444 C5.92326138,3.48675036 6.42350119,2.73361229 7.05467625,2.09205023 C7.6858513,1.45048816 8.42781773,0.941422608 9.28057552,0.564853565 C10.1333333,0.188284522 11.0431654,0 12.0100719,0 C12.9769784,0 13.8834532,0.188284522 14.7294964,0.564853565 C15.5755395,0.941422608 16.3141486,1.45048816 16.9453237,2.09205023 C17.5764988,2.73361229 18.0767386,3.48675036 18.4460431,4.35146444 C18.8153477,5.21617853 19,6.13668062 19,7.11297072 L19,7.11297072 Z M12.010072,10.376569 C12.4532374,10.376569 12.8695444,10.2894003 13.2589928,10.1150628 C13.6484412,9.94072524 13.98753,9.70711297 14.276259,9.41422594 C14.564988,9.12133892 14.7932854,8.77615063 14.9611511,8.37866108 C15.1290168,7.98117153 15.2129497,7.55927474 15.2129497,7.1129707 C15.2129497,6.66666667 15.1290168,6.24476987 14.9611511,5.84728032 C14.7932854,5.44979077 14.564988,5.10460248 14.276259,4.81171546 C13.98753,4.51882844 13.6484413,4.28521616 13.2589928,4.11087864 C12.8695444,3.93654112 12.4532374,3.84937236 12.010072,3.84937236 C11.5669065,3.84937236 11.1505996,3.93654112 10.7611511,4.11087864 C10.3717027,4.28521616 10.0292566,4.51882844 9.73381299,4.81171546 C9.43836936,5.10460248 9.20671469,5.44979077 9.03884897,5.84728032 C8.87098324,6.24476987 8.7870504,6.66666667 8.7870504,7.1129707 C8.7870504,7.55927474 8.87098327,7.98117153 9.03884897,8.37866108 C9.20671466,8.77615063 9.43836934,9.12133892 9.73381299,9.41422594 C10.0292566,9.70711297 10.3717027,9.94072524 10.7611511,10.1150628 C11.1505995,10.2894003 11.5669065,10.376569 12.010072,10.376569 Z" id="形状" fill="url(#linearGradient-2)" fill-rule="nonzero"></path>
                    </g>
                </g>
            </g>
        </g>
    </g>
</svg>