<?xml version="1.0" encoding="UTF-8"?>
<svg width="24px" height="24px" viewBox="0 0 24 24" version="1.1" xmlns="http://www.w3.org/2000/svg" xmlns:xlink="http://www.w3.org/1999/xlink">
    <title>tools_tool</title>
    <defs>
        <linearGradient x1="50%" y1="0%" x2="50%" y2="98.2479069%" id="linearGradient-1">
            <stop stop-color="#FFFFFF" offset="0%"></stop>
            <stop stop-color="#FFFFFF" stop-opacity="0.5" offset="100%"></stop>
        </linearGradient>
    </defs>
    <g id="界面展示" stroke="none" stroke-width="1" fill="none" fill-rule="evenodd">
        <g id="BIM运维-首页-综合态势备份" transform="translate(-1548.000000, -783.000000)" fill="url(#linearGradient-1)" fill-rule="nonzero">
            <g id="编组" transform="translate(1230.000000, 725.000000)">
                <g id="编组-34" transform="translate(310.000000, 50.000000)">
                    <g id="编组-32" transform="translate(8.000000, 8.000000)">
                        <path d="M20.0230933,22.9719422 C18.0850364,20.5286088 13.9950868,15.6728703 12.0489095,13.2323486 L10.0648373,10.7355937 L11.1529642,9.70933744 L12.2248505,8.66339956 L14.4606535,10.9183517 C16.6477344,13.1255055 20.9812946,17.7506878 23.1710823,19.9522183 C23.7232661,20.5061155 24.0155987,21.2315241 23.999358,21.9906725 C23.9722902,23.2671666 23.125067,24.06849 21.9097213,23.9953868 C21.1843033,23.9504002 20.5103143,23.5876959 20.0230933,22.9719422 L20.0230933,22.9719422 Z M0.163423844,8.78711265 C0.431395395,8.5312515 0.70207373,8.27257869 0.972752065,8.01671754 C1.27320502,7.72992813 1.57636475,7.43751539 1.87411092,7.15072597 C1.97696869,7.04950617 2.07711967,7.01295458 2.21787241,7.01576624 C2.29095556,7.0185779 2.94870391,7.05794116 3.1300584,7.06637614 L3.18690085,7.0691878 C3.8446492,7.09168109 4.1694632,6.7739634 4.20465139,6.07385982 L4.21547852,5.89672518 C4.22630565,5.74208383 4.234426,5.59025414 4.23171922,5.43561278 C4.22901244,5.23036153 4.30209559,5.07572018 4.48074329,4.89858554 C5.39292928,3.99604237 6.47022905,2.92479955 7.54211526,1.82825177 C7.99414808,1.36432771 8.51926405,0.993188468 9.14182422,0.703587389 C10.5222837,0.0512820463 11.843194,-0.14272256 13.1776382,0.101891944 C13.8380933,0.222793365 14.4606535,0.444914581 15.0561458,0.782313896 C15.3809598,0.965071858 15.2753953,1.48522914 14.9072728,1.50772242 C14.1980955,1.54989734 13.5565879,1.71016201 12.955682,1.98570479 C11.556275,2.62957515 10.7252925,3.92293919 10.7334128,5.4412361 C10.7388264,6.13852802 10.906647,6.8245733 11.2341677,7.4796903 C10.830857,7.87051117 10.419426,8.27257869 10.0134085,8.66621122 C9.66694019,9.00079888 9.33129905,9.33257487 9.02001897,9.63623426 C8.63024216,9.23416674 8.53821153,9.15262857 8.46512838,9.10201867 C7.99685486,8.79554763 7.45279141,8.74493773 7.00346537,8.96143563 C6.85729907,9.03172715 6.71654634,9.1357586 6.58120717,9.26509501 C5.9748877,9.83867384 5.8449621,10.6118806 6.22391177,11.3485358 C6.08315903,11.4778722 5.9424063,11.6100202 5.80165356,11.7393567 C5.23864263,12.2679489 4.65397742,12.8105995 4.06931222,13.3195101 C3.98269515,13.3926133 3.91231878,13.4347882 3.86630347,13.4347882 C3.84194242,13.4347882 3.77156605,13.4179182 3.62810653,13.2970168 L0.853653598,10.2098131 L0.122822093,9.34382152 C-0.026050991,9.16668688 -0.0693595246,9.01204552 0.163423844,8.78711265 Z" id="tools_tool"></path>
                    </g>
                </g>
            </g>
        </g>
    </g>
</svg>